<svg version="1.1" id="Layer_1" xmlns="http://www.w3.org/2000/svg" xmlns:xlink="http://www.w3.org/1999/xlink" x="0px" y="0px"
	 width="100%" viewBox="0 0 1019 353" enable-background="new 0 0 1019 353" xml:space="preserve">
<path fill="#000000" opacity="1.000000" stroke="none" 
	d="
M665.000000,354.000000 
	C443.333405,354.000000 222.166824,354.000000 1.000178,354.000000 
	C1.000119,236.333450 1.000119,118.666908 1.000059,1.000273 
	C340.666412,1.000182 680.332825,1.000182 1019.999451,1.000091 
	C1019.999634,118.666382 1019.999634,236.332764 1019.999817,353.999573 
	C901.833313,354.000000 783.666687,354.000000 665.000000,354.000000 
M627.001770,305.001923 
	C627.001770,305.001923 627.037842,304.972015 626.756897,304.580902 
	C626.545837,304.334625 626.300659,304.128998 626.000061,304.002441 
	C626.000061,304.002441 626.036011,303.976654 625.745117,303.599030 
	C625.529297,303.361633 625.280762,303.165771 624.628296,302.672272 
	C624.364563,302.465485 624.100769,302.258728 623.796509,301.336090 
	C622.794250,299.334167 621.792053,297.332245 620.789856,295.330322 
	C620.231201,295.498108 619.672546,295.665894 619.113892,295.833679 
	C618.770203,299.212311 618.001099,302.626434 618.278381,305.953308 
	C618.400818,307.421875 620.646423,308.713531 621.942566,310.095581 
	C621.942566,310.095581 621.905640,310.114838 622.400513,310.589081 
	C631.959351,314.453796 641.371582,314.477600 650.503174,309.335571 
	C658.038147,305.092590 659.933838,296.232483 654.833313,288.347260 
	C654.448120,287.845367 654.164795,287.180115 653.662109,286.866730 
	C648.280029,283.511292 642.911804,280.128113 637.436096,276.930145 
	C634.541626,275.239685 633.499756,273.137390 635.348755,269.459991 
	C637.874329,268.409546 640.377319,266.533722 642.929810,266.463745 
	C650.526978,266.255524 652.037048,273.397278 655.676758,279.193207 
	C656.886047,276.268036 657.759583,274.372131 658.462036,272.414856 
	C660.446289,266.886414 658.840088,263.793335 653.032227,262.608307 
	C649.141541,261.814423 645.008667,260.685211 641.229370,261.275604 
	C637.051086,261.928345 633.152527,264.371765 628.828552,266.521454 
	C628.552795,267.023773 628.277100,267.526123 627.508423,268.185608 
	C627.087769,268.464355 626.667114,268.743103 626.170105,269.748260 
	C626.101624,270.474945 626.033142,271.201660 625.460999,272.201416 
	C625.066345,272.805359 624.671692,273.409271 624.229370,274.883240 
	C624.214294,276.915894 624.199219,278.948517 624.230957,281.673737 
	C626.129028,284.149658 628.027039,286.625580 630.520691,289.437622 
	C632.625854,290.671387 634.644897,292.094421 636.853882,293.100128 
	C641.663757,295.289886 644.275269,298.771576 643.427979,304.433197 
	C639.527222,308.128052 634.929626,308.536285 629.488403,306.958466 
	C628.998901,306.637665 628.509399,306.316864 627.748535,305.597382 
	C627.544312,305.344482 627.303711,305.133026 627.001770,305.001923 
M86.988106,158.306793 
	C86.988106,158.306793 87.298012,158.194199 87.298012,158.194199 
	C87.298012,158.194199 87.171494,157.853790 87.006157,157.756592 
	C87.006157,157.756592 86.689278,157.876022 86.689278,157.876022 
	C86.689278,157.876022 86.819618,158.215942 86.988106,158.306793 
M856.051025,264.059387 
	C856.051025,264.059387 856.033752,264.121063 855.439758,264.261047 
	C854.932617,264.836853 854.425415,265.412689 853.861145,266.623505 
	C853.868164,267.047638 853.875183,267.471741 853.906738,267.960083 
	C853.906738,267.960083 853.975403,267.956848 853.316467,267.880188 
	C852.874634,267.894348 852.432800,267.908508 851.427979,267.538239 
	C850.229858,266.291870 849.124512,264.934570 847.805847,263.832397 
	C846.647949,262.864685 845.236267,261.482941 843.962769,261.510010 
	C840.559326,261.582275 837.169922,262.313599 833.017822,262.862854 
	C830.862244,263.605713 828.706665,264.348602 826.551086,265.091492 
	C826.520203,265.624512 826.489258,266.157562 826.458374,266.690613 
	C833.200134,267.936768 832.397400,272.219269 831.110413,276.616760 
	C828.634033,285.078003 826.098450,293.521973 823.579163,301.970673 
	C820.781189,311.353943 821.595947,312.533508 831.360901,311.787720 
	C833.246765,311.643707 836.042847,310.207184 836.614258,308.688049 
	C837.995544,305.015625 838.310913,300.942291 839.572510,296.651672 
	C840.659424,292.771332 841.746399,288.890991 843.201050,284.555145 
	C843.445435,284.024658 843.689880,283.494171 844.339722,282.563995 
	C844.549622,282.038147 844.759583,281.512329 844.994995,281.004150 
	C844.994995,281.004150 844.984253,280.976685 845.577515,280.657593 
	C847.728455,278.186218 849.734253,275.566528 852.068481,273.282410 
	C854.758484,270.650116 857.550232,267.861145 862.359680,269.698181 
	C862.341187,273.000427 862.951843,276.458557 862.180054,279.574188 
	C860.265076,287.304626 857.504578,294.822845 855.495544,302.533569 
	C853.948975,308.469635 855.806030,311.513885 860.957458,312.927155 
	C866.518982,314.452911 875.733826,309.590454 878.050171,303.673340 
	C877.242310,303.506714 876.442932,303.107178 875.737427,303.233246 
	C869.866211,304.282715 869.322876,303.591919 871.135437,297.745667 
	C872.856384,292.195190 874.394348,286.587982 876.386169,280.350739 
	C877.856689,275.408020 879.687500,270.429688 874.593140,265.747986 
	C874.347046,265.504303 874.100952,265.260590 873.685181,264.333801 
	C868.924194,260.245880 863.175232,259.756989 857.482727,263.075348 
	C857.308838,263.086029 857.134888,263.096710 856.603149,263.338654 
	C856.380981,263.522644 856.202820,263.742371 856.051025,264.059387 
M820.566223,251.584381 
	C822.750610,248.892181 822.484680,246.401123 819.615723,243.726715 
	C819.382507,243.488617 819.135681,243.265579 818.367126,242.569778 
	C813.179199,240.076324 810.767029,240.937347 808.858093,246.387833 
	C808.858093,246.387833 808.869934,246.823044 808.291382,247.223755 
	C808.550964,249.709198 807.913269,253.241486 809.291016,254.422531 
	C811.129211,255.998199 814.546509,256.146271 817.257690,256.057434 
	C818.169312,256.027557 818.995850,253.400040 819.903381,251.932800 
	C819.903381,251.932800 819.943420,251.902802 820.566223,251.584381 
M944.542419,307.525543 
	C945.457581,305.662750 947.256287,303.712311 947.082275,301.957520 
	C946.816406,299.275879 945.637817,296.350769 943.919067,294.310455 
	C943.225098,293.486633 940.085632,294.722839 937.766174,295.549713 
	C937.453308,296.289062 937.140442,297.028412 936.284119,298.218811 
	C933.565674,302.236206 935.811279,304.775452 938.903442,307.064178 
	C938.903442,307.064178 938.892944,307.083099 938.756653,307.726624 
	C936.702942,310.028290 934.649231,312.329987 932.281250,314.983917 
	C938.557983,316.027100 942.537842,313.293762 943.836609,307.850098 
	C943.836609,307.850098 943.922729,307.820892 944.542419,307.525543 
M468.999542,152.998260 
	C468.999542,152.998260 468.994476,153.035156 469.932159,152.994278 
	C498.455017,152.994278 526.977905,152.994278 555.500732,152.994278 
	C555.499390,152.706543 555.497986,152.418793 555.496643,152.131058 
	C555.005737,152.069992 554.514893,152.008911 554.197510,151.180374 
	C558.078857,136.026459 554.214539,122.085548 546.936401,108.961678 
	C540.471802,97.304924 530.386902,89.755028 517.858032,85.165817 
	C508.179840,81.620781 498.201019,81.451759 488.251495,82.126450 
	C470.428009,83.335114 455.542206,90.332474 445.194824,105.632072 
	C433.769623,122.525337 432.717194,141.287918 434.402039,160.750870 
	C435.849091,177.466415 445.595428,189.851669 455.222198,202.374222 
	C455.589905,202.852570 456.293976,203.143005 456.899353,203.356232 
	C460.291901,204.551193 463.667267,205.813812 467.113556,206.833481 
	C475.382874,209.280197 483.688354,211.604691 491.492279,213.986115 
	C490.965729,214.058838 490.439178,214.131577 489.912628,214.204315 
	C489.973907,214.419098 490.035187,214.633896 490.096466,214.848694 
	C490.733856,214.571381 491.371216,214.294067 492.802338,214.106705 
	C497.442566,213.471588 502.113495,213.004837 506.716614,212.166046 
	C516.042114,210.466690 526.147400,211.004211 533.458252,203.206345 
	C533.854065,202.784119 534.733826,202.860214 535.284973,202.531219 
	C537.593262,201.153534 540.707581,200.238907 541.988464,198.192047 
	C545.991577,191.795197 549.226379,184.922485 552.899719,178.312439 
	C554.972778,174.582062 554.791321,171.512451 551.767944,169.038147 
	C553.597900,169.038147 555.427856,169.038147 557.257812,169.038147 
	C557.255615,168.721542 557.253479,168.404953 557.251343,168.088348 
	C547.900635,168.088348 538.549927,168.088348 529.199219,168.088348 
	C529.188721,168.347412 529.178223,168.606461 529.167786,168.865524 
	C530.104309,168.932037 531.040894,168.998566 531.629700,169.622147 
	C529.078552,171.912018 526.324402,174.014603 524.010071,176.522949 
	C511.536743,190.041946 495.002533,192.799896 479.954681,183.725647 
	C471.042786,178.351562 465.174072,164.529373 468.413940,155.331421 
	C468.617279,154.544327 468.820618,153.757248 468.999542,152.998260 
M687.511658,270.678436 
	C690.011108,264.938629 690.011108,264.938629 687.182190,263.051025 
	C686.123108,263.030579 685.063965,263.010132 683.261353,262.653381 
	C673.504456,260.744354 668.865234,262.074127 668.105103,267.328796 
	C673.422668,268.018402 673.076416,271.229462 671.801697,275.347565 
	C670.212097,280.483002 669.192139,285.794800 667.907837,291.650696 
	C667.916016,292.064178 667.924255,292.477692 667.391602,293.225128 
	C667.037781,294.150848 666.684021,295.076569 666.245789,296.688690 
	C666.165100,297.142456 666.084412,297.596222 665.652588,298.299530 
	C665.430603,298.486420 665.250732,298.707581 665.132202,299.801117 
	C665.171021,301.197205 665.209839,302.593323 665.147705,304.691681 
	C665.373352,305.818176 665.598938,306.944702 666.042053,308.728088 
	C667.663757,309.894196 669.285461,311.060303 671.480591,312.631500 
	C681.524841,315.184753 688.752380,309.560028 695.519043,303.894196 
	C697.096130,306.979431 698.447144,309.622284 700.545837,312.559448 
	C709.224548,313.741089 716.644897,310.336761 718.501953,304.250031 
	C718.100342,304.023712 717.680359,303.579681 717.265137,303.584015 
	C710.608459,303.653748 710.204163,303.185547 711.881226,296.640869 
	C712.412170,294.568695 713.280640,292.584167 713.835938,290.516907 
	C715.932373,282.712830 717.963379,274.891174 720.434692,266.790649 
	C720.633728,266.522339 720.832703,266.254028 721.043518,265.495514 
	C721.043518,265.495514 721.051392,265.005219 721.335144,264.427307 
	C720.340454,263.321625 719.386475,261.325745 718.343445,261.278137 
	C715.287781,261.138641 712.103943,261.443207 709.163879,262.265808 
	C707.942078,262.607666 707.211121,264.703949 706.208313,266.679382 
	C706.156189,267.128693 706.104065,267.578033 705.604370,268.465454 
	C705.372559,269.989471 705.140747,271.513489 704.890259,273.643677 
	C704.901794,274.047699 704.913330,274.451721 704.494629,275.076599 
	C704.301636,275.730225 704.108582,276.383881 703.838989,277.699738 
	C703.539795,278.764832 703.240601,279.829926 702.370667,281.199219 
	C702.014709,282.128632 701.658691,283.058044 700.982056,284.572113 
	C700.699402,285.405273 700.416748,286.238464 699.697144,287.578705 
	C699.252930,289.048187 698.808777,290.517700 698.218445,292.569946 
	C698.159546,292.761353 698.100708,292.952759 697.443909,293.437408 
	C695.263000,296.103699 693.472229,299.303589 690.780579,301.271362 
	C688.533630,302.914062 685.231445,303.113403 682.396667,303.951965 
	C681.782104,301.609619 680.953857,299.297211 680.620300,296.915497 
	C680.350037,294.986328 680.674866,292.973816 681.096069,290.356903 
	C683.071106,283.908325 685.046143,277.459717 687.511658,270.678436 
M780.979065,268.019104 
	C784.231689,267.962250 787.540710,268.231903 790.708496,267.684204 
	C791.937012,267.471863 792.846008,265.411438 793.900513,264.192902 
	C792.886047,263.492737 791.871582,262.792603 789.999573,262.090424 
	C789.168396,262.093262 788.336853,262.113708 787.506104,262.096100 
	C782.099670,261.981537 781.767883,261.562927 782.945251,256.223053 
	C783.410217,254.113953 784.184570,252.036362 784.342712,249.909103 
	C784.449158,248.476959 783.722351,246.982880 783.368286,245.516525 
	C781.873047,245.882050 780.048401,245.823013 778.938110,246.684601 
	C773.327026,251.038971 767.827698,255.546951 762.450500,260.187988 
	C760.491333,261.878937 758.978333,264.086700 757.261780,266.058685 
	C759.463623,266.784668 761.666565,267.507263 763.864685,268.244293 
	C764.010986,268.293335 764.120544,268.451874 764.796631,269.026367 
	C763.924927,272.329529 762.885498,275.928711 762.031494,279.571320 
	C759.996094,288.253052 757.802673,296.912750 756.283508,305.687042 
	C755.998474,307.333008 758.109985,310.277802 759.870544,311.235992 
	C766.346497,314.760437 777.331848,312.474915 782.521179,306.951904 
	C783.088989,306.347656 783.427673,305.199463 783.301392,304.392944 
	C783.223572,303.895721 782.063477,303.237488 781.387268,303.235168 
	C780.101257,303.230743 778.782349,303.537720 777.532288,303.903809 
	C772.276123,305.443237 769.551941,303.251099 771.001404,298.015869 
	C773.787170,287.954681 777.020691,278.017548 780.979065,268.019104 
M568.899292,84.844780 
	C568.598999,88.145218 568.058655,91.444244 568.039307,94.746330 
	C567.947632,110.370956 568.069702,125.997116 567.914062,141.620728 
	C567.892944,143.741470 566.734192,145.850876 566.064209,147.035355 
	C566.064209,126.427696 566.064209,105.820030 566.064209,85.212372 
	C565.263306,85.608932 565.007935,86.042679 565.007446,86.476692 
	C564.965332,127.129471 564.960327,167.782288 564.886597,208.434998 
	C564.880432,211.851990 566.270935,213.185394 569.664734,213.151154 
	C579.160278,213.055344 588.662781,212.963837 598.152039,213.237106 
	C602.801575,213.370987 604.207825,211.567062 604.157043,207.093582 
	C603.956604,189.434875 604.056152,171.772903 603.968140,154.112534 
	C603.958374,152.149551 603.461365,150.189011 602.811768,147.560181 
	C603.260620,144.189590 603.281799,140.692612 604.233948,137.470749 
	C607.977051,124.804710 619.278320,117.796921 632.300720,119.906319 
	C637.003906,120.668152 639.562378,118.687584 640.627747,114.274841 
	C642.732727,105.555939 644.973572,96.865547 646.801941,88.089134 
	C647.052307,86.887398 645.458252,84.190872 644.386841,83.994507 
	C632.478455,81.812057 621.578979,83.621338 613.105713,93.232956 
	C609.986755,96.770935 606.996643,100.422501 603.561829,103.291313 
	C603.561829,96.973289 603.561829,90.655266 603.561829,84.337250 
	C603.033142,84.344398 602.504517,84.351555 601.975830,84.358711 
	C601.975830,91.590302 601.975830,98.821899 601.415588,106.061943 
	C600.943665,101.860023 600.709534,97.612984 599.923279,93.470726 
	C599.313904,90.260574 598.014343,87.181427 597.417480,83.967659 
	C597.573181,83.760345 597.728882,83.553032 597.884583,83.345749 
	C597.747620,83.268608 597.610413,83.123642 597.473633,83.123985 
	C588.008362,83.147766 578.543030,83.182434 569.078003,83.250244 
	C569.048584,83.250450 569.022644,83.746193 568.899292,84.844780 
M775.991455,32.923386 
	C776.179871,50.693329 776.365479,68.463303 776.557800,86.233200 
	C776.656616,95.356087 776.922729,104.480301 776.836853,113.601311 
	C776.700867,128.043808 776.281982,142.483398 776.076721,156.925552 
	C775.854919,172.541870 775.861816,188.162537 775.500244,203.775085 
	C775.402527,207.998474 776.642517,210.047272 781.028870,210.014969 
	C789.018616,209.956131 797.012146,209.953766 804.998657,210.148636 
	C808.263367,210.228287 808.950623,208.733032 808.843506,205.882538 
	C808.495789,196.626404 808.139282,187.366104 808.066162,178.105194 
	C807.936523,161.677002 808.005920,145.247192 808.003784,128.818069 
	C808.000122,101.016342 807.993286,73.214600 808.033325,45.412926 
	C808.036194,43.436184 808.584167,41.458694 808.569519,39.483852 
	C808.551086,36.993370 808.214722,34.505249 808.360046,31.742577 
	C808.373352,31.596283 808.448792,31.368811 808.386597,31.321196 
	C808.270020,31.231951 808.073730,31.221481 807.910645,31.221952 
	C799.781067,31.245430 791.650757,31.222878 783.522278,31.331356 
	C781.009094,31.364897 778.500732,31.756472 775.991455,32.923386 
M347.530029,84.004601 
	C347.984863,83.903671 348.439667,83.802742 348.894501,83.701813 
	C347.181458,83.008530 345.450104,83.003807 343.718719,83.009323 
	C334.397003,83.038994 325.075287,83.069252 315.753784,83.134926 
	C315.674255,83.135483 315.598175,83.625137 315.520508,83.886444 
	C315.683502,83.918472 315.846527,83.950500 315.802460,84.658966 
	C315.596039,87.033531 314.632050,89.656609 315.315277,91.739342 
	C318.161621,100.416367 321.661682,108.876381 324.634979,117.514786 
	C334.377838,145.820969 344.089050,174.139023 353.567902,202.534134 
	C355.131683,207.218597 356.587860,210.944672 362.499969,210.244110 
	C363.245819,210.155731 364.126129,211.202271 364.081482,211.763672 
	C361.655396,211.763672 359.229309,211.763672 356.803223,211.763672 
	C356.814301,212.099014 356.825348,212.434372 356.836395,212.769714 
	C370.012787,212.769714 383.189148,212.769714 397.689209,212.769714 
	C395.951202,212.072540 395.503601,211.893005 395.270477,211.077515 
	C396.378387,208.844788 397.758636,206.704178 398.550171,204.364410 
	C403.774109,188.922806 408.829407,173.424225 414.020416,157.971344 
	C420.854004,137.628677 427.683777,117.284050 434.675354,96.995438 
	C437.557953,88.630539 437.746674,88.696678 431.316071,84.469009 
	C431.187073,84.384193 431.122406,84.201538 431.904083,84.042480 
	C434.796387,84.042480 437.688690,84.042480 440.581024,84.042480 
	C430.237762,83.037674 419.903473,83.022499 409.569336,83.054871 
	C408.106262,83.059456 406.643890,83.295517 405.181213,83.424431 
	C405.288147,83.627129 405.359711,83.866684 405.516602,84.017357 
	C405.598145,84.095650 405.830505,84.016922 405.907532,84.793961 
	C405.786865,85.447540 405.720825,86.116844 405.537750,86.752449 
	C397.859741,113.408325 390.270905,140.090897 382.343445,166.672485 
	C381.467346,169.610077 378.648468,171.968277 376.730621,174.595184 
	C376.144318,174.434998 375.557983,174.274796 374.971680,174.114594 
	C373.266327,168.104065 371.635468,162.071182 369.840576,156.087524 
	C365.785553,142.569229 361.759155,129.040619 357.511261,115.582428 
	C354.175629,105.014420 350.525452,94.545677 347.530029,84.004601 
M292.329651,155.432480 
	C293.872864,155.021042 295.403870,154.316711 296.961517,154.251831 
	C302.117493,154.037079 307.283661,153.971481 312.444794,154.007767 
	C316.141663,154.033752 317.785492,152.508347 318.032104,148.685440 
	C319.038971,133.079956 313.305634,118.972191 308.143311,104.828049 
	C307.117462,102.017334 303.069214,100.371361 300.598907,97.996666 
	C299.572937,97.010384 299.121704,95.452728 298.242065,94.280235 
	C297.365631,93.112030 296.481995,91.626404 295.251312,91.102173 
	C289.640533,88.712227 284.066986,85.942390 278.186768,84.531937 
	C260.079590,80.188690 242.141373,80.434143 225.122284,89.075645 
	C221.168976,91.082954 217.140152,93.537209 214.136414,96.720337 
	C197.218201,114.648872 194.577118,136.715378 196.503113,160.004257 
	C197.932663,177.290390 206.991150,190.806763 217.898911,203.376846 
	C218.861237,204.485840 220.785187,204.824875 222.319916,205.355484 
	C224.038971,205.949799 225.924438,206.132462 227.563919,206.876648 
	C246.056656,215.270554 264.836182,215.807922 283.950195,209.213242 
	C288.138336,207.768250 292.811310,207.270935 296.553894,205.111618 
	C300.895477,202.606674 304.924713,199.151749 308.195831,195.341873 
	C310.427551,192.742645 311.104279,188.818329 312.520630,185.505463 
	C313.435638,183.365250 314.654083,181.328995 315.342621,179.123199 
	C316.694458,174.792191 315.538635,173.199402 311.058990,173.041809 
	C307.398621,172.913055 303.727966,172.916931 300.066284,173.019180 
	C293.294525,173.208252 287.406219,172.451691 282.333466,180.348587 
	C276.031403,190.159134 264.143921,191.332169 252.931244,189.557632 
	C241.716125,187.782715 234.518631,180.814545 230.995071,170.139557 
	C230.478867,168.575668 231.037796,166.656906 231.474274,164.327820 
	C233.244690,156.976257 233.244690,156.976837 241.085312,156.978012 
	C264.018616,156.981445 286.951935,156.984406 309.885223,156.987457 
	C312.501129,156.987808 315.117065,156.987518 317.732971,156.987518 
	C317.732910,156.647446 317.732880,156.307373 317.732849,155.967300 
	C309.159271,155.967300 300.585724,155.967300 292.329651,155.432480 
M648.611389,124.034561 
	C648.275391,124.205704 647.939331,124.376854 647.603333,124.548004 
	C647.756226,124.609665 647.909119,124.725182 648.062073,124.725304 
	C658.613647,124.733772 669.165161,124.732986 679.716736,124.732986 
	C679.738342,124.551003 679.759949,124.369019 679.781555,124.187027 
	C678.529541,124.101845 677.277466,124.016663 676.378418,123.369545 
	C678.170410,121.330276 680.620056,119.573097 681.637329,117.201538 
	C685.479492,108.244026 693.166626,102.639572 701.902283,103.079109 
	C714.918945,103.734039 721.243958,107.989075 723.375122,119.732018 
	C725.440491,131.112610 724.973450,134.896423 711.975708,135.149353 
	C700.229614,135.377914 688.332153,135.927673 676.821777,138.062836 
	C663.197021,140.590225 651.774048,147.748306 646.745361,161.497589 
	C644.646790,167.235443 644.702087,173.797928 644.030151,180.012711 
	C642.781494,191.561417 649.885071,199.385498 656.943909,206.872375 
	C658.829468,208.872253 662.692078,209.360031 665.756104,209.828873 
	C673.928711,211.079391 682.179382,212.884094 690.364380,212.722015 
	C700.743713,212.516495 710.819641,209.813843 718.940857,202.533966 
	C724.642212,197.423294 726.549011,197.778214 728.758972,204.942810 
	C729.853882,208.492615 731.676331,210.188629 735.527283,210.056778 
	C741.009705,209.869049 746.510681,209.957581 751.992920,210.186722 
	C753.660034,210.256409 755.291382,211.179535 756.012085,211.766525 
	C747.390381,211.766525 738.768616,211.766525 730.146912,211.766525 
	C731.422302,212.984344 732.701538,213.112381 733.980896,213.114288 
	C742.086121,213.126373 750.191406,213.123352 758.295959,213.045715 
	C758.555176,213.043243 758.806091,212.180893 759.020752,210.892654 
	C758.347961,198.638702 757.321411,186.391510 757.087036,174.129181 
	C756.752808,156.645325 757.614014,139.122101 756.811829,121.668678 
	C756.117188,106.555283 750.059387,94.174545 735.027161,87.484734 
	C721.378174,81.410545 707.229797,80.918457 692.917786,82.684906 
	C686.099670,83.526421 678.999512,85.109184 672.897034,88.119537 
	C658.268494,95.335785 650.126526,107.522972 648.611389,124.034561 
M83.227844,157.600250 
	C72.203278,157.448547 61.176846,157.177124 50.157330,157.349167 
	C49.166382,157.364670 48.220203,160.246826 47.253246,161.797684 
	C47.459072,161.680191 47.698410,161.595490 47.857826,161.432587 
	C47.949585,161.338806 47.912018,161.118484 48.317509,161.607803 
	C49.926788,167.703110 50.659237,174.218445 53.334572,179.803055 
	C58.339199,190.249954 63.566280,200.622482 74.561890,206.830963 
	C80.288322,210.064301 86.309906,209.939651 92.198669,211.310181 
	C108.824905,215.179672 125.561325,215.332840 142.225830,211.874573 
	C149.422226,210.381134 156.541809,208.222549 163.444992,205.683029 
	C172.827576,202.231384 176.325974,193.149002 180.544632,185.329956 
	C189.696899,168.366684 190.049728,150.887375 180.619064,133.813004 
	C173.877213,121.606743 161.901871,116.057266 149.482178,112.031342 
	C135.095978,107.367981 120.298561,103.988716 105.792740,99.672005 
	C99.096344,97.679245 93.315903,93.970245 90.630516,86.963181 
	C85.970955,74.804871 94.043221,61.448853 107.828804,59.248566 
	C118.917694,57.478687 130.329681,55.612705 138.701797,66.308235 
	C145.765274,66.890717 146.880417,72.759964 148.732056,77.819481 
	C149.812454,80.771660 151.619720,82.030739 154.701416,82.004410 
	C162.864273,81.934639 171.028870,81.919083 179.191254,82.014229 
	C182.823364,82.056564 184.070633,80.485580 183.123077,77.068352 
	C181.701965,71.943329 179.985123,66.884201 178.868851,61.694912 
	C177.538803,55.511868 172.620758,51.389156 170.313385,45.795143 
	C169.917145,44.834538 168.735245,44.008945 167.723236,43.522999 
	C162.361862,40.948574 157.058502,38.188133 151.512329,36.077347 
	C139.888092,31.653339 127.806252,29.803707 115.326508,30.262520 
	C102.909607,30.719025 90.804794,32.184177 79.620956,38.196053 
	C77.525406,39.322517 74.430748,38.995392 72.775352,40.451290 
	C69.333809,43.478085 66.302048,47.065380 63.533833,50.747089 
	C50.294830,68.354889 49.341084,87.416359 57.234837,107.411476 
	C58.497395,110.609581 59.045181,114.669304 61.350365,116.749107 
	C65.454285,120.451790 70.315628,123.824074 75.452652,125.772408 
	C88.320236,130.652695 101.506104,134.699158 114.590187,139.001343 
	C123.249268,141.848557 132.395111,143.636887 140.538239,147.537598 
	C154.381424,154.168777 155.640961,168.233414 144.101761,178.335068 
	C136.818390,184.711090 127.860634,185.964966 118.808495,185.551880 
	C107.095169,185.017380 95.633965,182.847260 89.155838,171.366714 
	C86.824387,167.234909 85.658058,162.445648 83.227844,157.600250 
M952.024841,194.516083 
	C948.338562,189.979828 944.591675,185.491226 940.978455,180.897522 
	C933.256714,171.080307 925.765564,161.075623 917.825684,151.439636 
	C915.413391,148.511948 915.783325,146.947433 918.078125,144.370041 
	C923.512268,138.266861 928.658569,131.903229 933.820251,125.562706 
	C940.475281,117.387779 947.035889,109.135910 953.629395,100.910934 
	C958.298462,95.086487 962.954590,89.251640 967.844849,83.135826 
	C966.720520,82.654701 966.144348,82.195053 965.565796,82.192032 
	C953.738586,82.130333 941.909973,82.044243 930.085022,82.206200 
	C928.738281,82.224640 927.034668,83.395126 926.133545,84.535011 
	C916.825500,96.309319 907.521362,108.091980 898.520447,120.100365 
	C896.142334,123.272995 894.288818,122.356781 892.674500,120.203720 
	C884.330200,109.074539 876.237183,97.756866 867.886414,86.632652 
	C866.532227,84.828751 864.360840,82.456703 862.505737,82.401299 
	C849.979553,82.027107 837.436829,82.206123 823.567017,82.206123 
	C826.493469,85.442505 828.689270,87.607437 830.584839,90.009354 
	C844.113525,107.151825 857.666138,124.277191 870.976685,141.588318 
	C872.983948,144.198883 876.635864,146.989273 873.011536,151.319107 
	C867.270813,158.177505 861.840210,165.294830 856.244019,172.274994 
	C846.665771,184.221970 837.036499,196.128174 827.516785,208.121521 
	C826.800354,209.024063 826.217102,210.745636 826.612915,211.609741 
	C826.981689,212.414963 828.735901,212.962418 829.886719,212.973999 
	C840.547668,213.081177 851.210510,213.097382 861.871399,212.991867 
	C863.199646,212.978729 865.041809,212.503860 865.759460,211.565262 
	C870.979126,204.738739 875.882019,197.670731 881.063782,190.814102 
	C885.347168,185.146347 889.875244,179.663513 894.788635,173.476990 
	C895.973450,175.841125 896.524170,177.551086 897.553406,178.894531 
	C904.317993,187.724457 911.405884,196.315613 917.935852,205.313126 
	C921.741821,210.557297 925.509216,213.940933 932.796570,213.274368 
	C942.048157,212.428116 951.436462,213.108948 960.765198,213.042984 
	C962.406250,213.031372 964.044250,212.586273 965.879333,212.312134 
	C961.147034,206.168304 956.852112,200.592209 952.024841,194.516083 
M920.333923,329.880798 
	C925.841309,325.616150 928.343689,318.778442 926.423706,313.240540 
	C924.527100,307.770081 919.392456,304.965240 912.001831,304.890320 
	C907.203125,304.841705 902.349487,304.618073 897.646301,303.772919 
	C895.995422,303.476257 894.719421,301.093353 893.272278,299.663055 
	C895.046387,298.600861 896.731506,296.880310 898.614807,296.625793 
	C901.692261,296.209869 904.933594,297.117798 908.044861,296.823242 
	C924.046265,295.308258 930.372864,288.492188 931.386780,277.025848 
	C931.841858,271.878784 931.830566,268.369843 937.269043,266.355408 
	C940.065613,265.319519 941.352173,258.743927 939.580322,256.659760 
	C936.729736,253.306625 934.642578,257.095398 932.270203,257.828033 
	C931.226196,258.150452 930.192261,259.004852 929.503784,259.889923 
	C926.966003,263.152252 923.794495,263.193512 920.076355,262.510773 
	C915.688843,261.705139 911.189026,261.015961 906.749451,261.079865 
	C892.312317,261.287781 882.399353,273.429993 885.885620,286.247314 
	C887.409546,291.849976 887.233887,295.536041 885.188477,301.050110 
	C884.898865,301.830811 884.396912,302.620178 884.395630,303.406189 
	C884.387634,308.370148 880.932068,311.136993 878.063904,314.570709 
	C871.192932,322.796265 872.395996,331.794678 882.741272,334.811432 
	C895.601929,338.561737 908.094666,337.544067 920.333923,329.880798 
M456.485962,303.056061 
	C454.723480,300.515625 452.513184,298.175140 451.274384,295.400879 
	C445.208649,281.816742 451.205597,257.710205 462.623260,248.137192 
	C473.301117,239.184509 487.559692,241.570618 492.721741,254.172913 
	C493.781494,256.760071 494.196350,259.605194 495.082764,262.273529 
	C495.334351,263.030945 496.101196,263.863190 496.825012,264.123291 
	C497.243561,264.273712 498.420197,263.477448 498.619873,262.890839 
	C500.276489,258.023438 502.028717,253.160934 503.164124,248.163361 
	C503.443726,246.932526 501.925079,244.557632 500.614441,243.842285 
	C497.025970,241.883774 493.229126,240.079773 489.297699,239.020004 
	C477.921051,235.953354 466.530396,235.744705 455.857758,241.522751 
	C437.746674,251.327866 430.740326,267.610291 432.191803,287.197998 
	C432.823608,295.724579 436.923401,302.757874 444.361603,307.334534 
	C456.693054,314.921906 469.588776,315.088623 483.128937,310.579559 
	C490.810059,308.021637 493.346832,302.110352 495.220703,295.431152 
	C495.499420,294.437653 494.362488,292.792480 493.458496,291.856232 
	C493.130829,291.516846 491.399170,292.144165 490.610962,292.734619 
	C489.573181,293.512054 488.749512,294.627563 487.979614,295.702179 
	C480.096497,306.706024 469.134247,309.466309 456.485962,303.056061 
M595.924255,286.387177 
	C594.418274,291.316528 592.751892,296.203705 591.442688,301.184753 
	C589.280579,309.410797 593.272705,313.997742 601.664856,312.767365 
	C604.382629,312.368896 607.190857,311.290314 609.499817,309.809082 
	C611.357056,308.617615 612.523865,306.349854 613.997009,304.559662 
	C613.617432,304.178253 613.237915,303.796844 612.858337,303.415405 
	C610.848083,303.669403 608.837891,303.923370 605.815308,304.305267 
	C606.733215,300.622681 607.408508,297.623352 608.232849,294.665558 
	C610.060425,288.108215 612.567871,281.673004 613.684998,275.001617 
	C615.158203,266.203857 610.735535,261.434723 601.818115,261.124908 
	C593.952942,260.851654 587.608704,264.335632 581.735535,270.488281 
	C581.989441,268.174774 582.590393,266.580292 582.192566,265.294891 
	C581.743713,263.844543 580.346802,261.526581 579.447998,261.565521 
	C573.774048,261.811432 568.123962,262.606873 561.893921,263.282928 
	C562.655945,265.206238 562.746338,266.468170 563.386902,266.885223 
	C567.910034,269.830261 567.013977,273.805603 565.816406,277.963867 
	C563.148560,287.227417 560.474487,296.490723 557.989197,305.803802 
	C557.562317,307.403595 557.382080,309.778809 558.249817,310.880829 
	C560.814697,314.138092 571.157654,311.420410 572.458862,307.465637 
	C575.252625,298.974152 577.647644,290.298096 581.206177,282.133636 
	C583.045288,277.914185 586.717834,274.299072 590.180786,271.075714 
	C591.612671,269.742920 595.057617,269.269989 596.852051,270.064941 
	C598.155640,270.642487 598.948364,274.021851 598.728699,276.015320 
	C598.370605,279.265625 597.000305,282.404388 595.924255,286.387177 
M551.930420,293.160370 
	C552.417358,291.394531 553.018188,289.651154 553.371460,287.858917 
	C554.861206,280.302185 554.316895,272.689362 548.481445,267.418671 
	C535.027893,255.267273 511.982697,261.558899 504.619110,274.955994 
	C501.395172,280.821533 499.656342,287.106598 499.970184,294.055695 
	C500.359192,302.668518 504.998932,309.355927 513.326477,311.783508 
	C529.203735,316.411804 542.658142,310.133301 551.930420,293.160370 
M731.049438,277.503113 
	C729.560120,281.903320 727.778015,286.230774 726.661072,290.723541 
	C725.469299,295.517700 724.718018,300.445374 724.124878,305.357056 
	C723.613098,309.594849 726.414246,311.820618 730.047607,312.802368 
	C735.808594,314.358978 745.509399,309.936951 749.377197,303.798096 
	C747.539429,303.581146 746.009521,303.168488 744.522949,303.289246 
	C742.988159,303.413910 741.495544,304.057190 738.370605,304.918304 
	C743.816284,279.821930 751.783447,256.794800 758.577332,232.684036 
	C750.142395,233.623703 742.631165,234.426498 735.135803,235.357468 
	C734.509766,235.435226 733.421936,236.701981 733.514587,236.863953 
	C734.114136,237.912445 734.796326,239.279343 735.793701,239.671600 
	C740.203064,241.405640 740.687012,244.366318 739.434753,248.489609 
	C736.588440,257.861633 733.981934,267.306488 731.049438,277.503113 
M812.087769,303.355804 
	C807.615662,304.575562 806.638733,303.771301 807.366272,299.378876 
	C807.583252,298.068726 807.920349,296.770569 808.302856,295.497040 
	C811.167358,285.958923 813.975342,276.402496 816.983582,266.909637 
	C818.024963,263.623444 817.201355,262.013306 813.733582,262.171051 
	C808.937439,262.389191 804.139709,262.677185 799.363953,263.150177 
	C798.444092,263.241272 797.093140,264.192444 796.898804,264.982422 
	C796.689941,265.831451 797.333496,267.474823 798.083496,267.875000 
	C801.538635,269.718597 800.739685,272.253845 799.861511,275.129211 
	C797.289673,283.550140 794.517395,291.934845 792.496765,300.492676 
	C790.131592,310.509918 796.050903,315.561798 805.745728,312.032806 
	C808.809509,310.917572 811.783813,309.175323 814.335022,307.138794 
	C816.972534,305.033386 815.983032,303.460449 812.087769,303.355804 
M795.487793,213.216797 
	C799.776123,213.216797 804.064453,213.216797 808.352783,213.216797 
	C808.338562,212.847946 808.324402,212.479080 808.310181,212.110229 
	C797.489563,212.110229 786.668945,212.110229 775.848328,212.110229 
	C775.841431,212.477325 775.834534,212.844406 775.827637,213.211502 
	C782.049194,213.211502 788.270752,213.211502 795.487793,213.216797 
M310.410217,83.936996 
	C310.410217,83.936996 310.544769,84.131699 310.544769,84.131699 
	C310.544769,84.131699 310.531128,83.885857 310.410217,83.936996 
M156.054276,209.436340 
	C156.054276,209.436340 156.086105,209.521210 156.054276,209.436340 
z"/>
<path fill="#070808" opacity="1.000000" stroke="none" 
	d="
M83.960022,157.956436 
	C85.658058,162.445648 86.824387,167.234909 89.155838,171.366714 
	C95.633965,182.847260 107.095169,185.017380 118.808495,185.551880 
	C127.860634,185.964966 136.818390,184.711090 144.101761,178.335068 
	C155.640961,168.233414 154.381424,154.168777 140.538239,147.537598 
	C132.395111,143.636887 123.249268,141.848557 114.590187,139.001343 
	C101.506104,134.699158 88.320236,130.652695 75.452652,125.772408 
	C70.315628,123.824074 65.454285,120.451790 61.350365,116.749107 
	C59.045181,114.669304 58.497395,110.609581 57.234837,107.411476 
	C49.341084,87.416359 50.294830,68.354889 63.533833,50.747089 
	C66.302048,47.065380 69.333809,43.478085 72.775352,40.451290 
	C74.430748,38.995392 77.525406,39.322517 79.620956,38.196053 
	C90.804794,32.184177 102.909607,30.719025 115.326508,30.262520 
	C127.806252,29.803707 139.888092,31.653339 151.512329,36.077347 
	C157.058502,38.188133 162.361862,40.948574 167.723236,43.522999 
	C168.735245,44.008945 169.917145,44.834538 170.313385,45.795143 
	C172.620758,51.389156 177.538803,55.511868 178.868851,61.694912 
	C179.985123,66.884201 181.701965,71.943329 183.123077,77.068352 
	C184.070633,80.485580 182.823364,82.056564 179.191254,82.014229 
	C171.028870,81.919083 162.864273,81.934639 154.701416,82.004410 
	C151.619720,82.030739 149.812454,80.771660 148.732056,77.819481 
	C146.880417,72.759964 145.765274,66.890717 138.701797,66.308235 
	C130.329681,55.612705 118.917694,57.478687 107.828804,59.248566 
	C94.043221,61.448853 85.970955,74.804871 90.630516,86.963181 
	C93.315903,93.970245 99.096344,97.679245 105.792740,99.672005 
	C120.298561,103.988716 135.095978,107.367981 149.482178,112.031342 
	C161.901871,116.057266 173.877213,121.606743 180.619064,133.813004 
	C190.049728,150.887375 189.696899,168.366684 180.544632,185.329956 
	C176.325974,193.149002 172.827576,202.231384 163.444992,205.683029 
	C156.541809,208.222549 149.422226,210.381134 142.225830,211.874573 
	C125.561325,215.332840 108.824905,215.179672 92.198669,211.310181 
	C86.309906,209.939651 80.288322,210.064301 74.561890,206.830963 
	C63.566280,200.622482 58.339199,190.249954 53.334572,179.803055 
	C50.659237,174.218445 49.926788,167.703110 48.172325,160.964157 
	C48.666103,159.536240 49.305065,158.751984 50.185715,158.107086 
	C51.290760,158.160645 52.154121,158.074829 53.484848,157.979645 
	C60.639240,157.983002 67.326263,157.995728 74.245560,158.142929 
	C75.313400,158.188248 76.148964,158.099091 77.421585,157.998032 
	C79.892433,157.976227 81.926224,157.966324 83.960022,157.956436 
z"/>
<path fill="#070808" opacity="1.000000" stroke="none" 
	d="
M756.939148,211.711777 
	C755.291382,211.179535 753.660034,210.256409 751.992920,210.186722 
	C746.510681,209.957581 741.009705,209.869049 735.527283,210.056778 
	C731.676331,210.188629 729.853882,208.492615 728.758972,204.942810 
	C726.549011,197.778214 724.642212,197.423294 718.940857,202.533966 
	C710.819641,209.813843 700.743713,212.516495 690.364380,212.722015 
	C682.179382,212.884094 673.928711,211.079391 665.756104,209.828873 
	C662.692078,209.360031 658.829468,208.872253 656.943909,206.872375 
	C649.885071,199.385498 642.781494,191.561417 644.030151,180.012711 
	C644.702087,173.797928 644.646790,167.235443 646.745361,161.497589 
	C651.774048,147.748306 663.197021,140.590225 676.821777,138.062836 
	C688.332153,135.927673 700.229614,135.377914 711.975708,135.149353 
	C724.973450,134.896423 725.440491,131.112610 723.375122,119.732018 
	C721.243958,107.989075 714.918945,103.734039 701.902283,103.079109 
	C693.166626,102.639572 685.479492,108.244026 681.637329,117.201538 
	C680.620056,119.573097 678.170410,121.330276 675.733582,123.676193 
	C670.380005,123.966942 665.671326,123.951035 660.871582,123.748718 
	C660.199951,123.685486 659.619324,123.808670 658.582886,123.954765 
	C655.094788,124.004799 652.062500,124.031906 649.030151,124.059013 
	C650.126526,107.522972 658.268494,95.335785 672.897034,88.119537 
	C678.999512,85.109184 686.099670,83.526421 692.917786,82.684906 
	C707.229797,80.918457 721.378174,81.410545 735.027161,87.484734 
	C750.059387,94.174545 756.117188,106.555283 756.811829,121.668678 
	C757.614014,139.122101 756.752808,156.645325 757.087036,174.129181 
	C757.321411,186.391510 758.347961,198.638702 758.687256,211.327957 
	C757.882202,211.746094 757.410706,211.728928 756.939148,211.711777 
M690.481506,190.345047 
	C694.127808,190.526917 697.806702,191.109802 701.414490,190.817139 
	C713.285522,189.854172 722.542725,182.166870 723.719727,172.164169 
	C724.261292,167.561768 724.308838,162.795792 723.713623,158.216675 
	C723.473511,156.369949 721.000671,153.465485 719.395569,153.362839 
	C708.937805,152.694138 698.391418,152.182205 688.344482,156.285492 
	C681.161926,159.218903 676.822571,166.030167 677.035522,174.056137 
	C677.238159,181.693604 681.918701,187.653076 690.481506,190.345047 
z"/>
<path fill="#070808" opacity="1.000000" stroke="none" 
	d="
M231.099258,164.902344 
	C231.037796,166.656906 230.478867,168.575668 230.995071,170.139557 
	C234.518631,180.814545 241.716125,187.782715 252.931244,189.557632 
	C264.143921,191.332169 276.031403,190.159134 282.333466,180.348587 
	C287.406219,172.451691 293.294525,173.208252 300.066284,173.019180 
	C303.727966,172.916931 307.398621,172.913055 311.058990,173.041809 
	C315.538635,173.199402 316.694458,174.792191 315.342621,179.123199 
	C314.654083,181.328995 313.435638,183.365250 312.520630,185.505463 
	C311.104279,188.818329 310.427551,192.742645 308.195831,195.341873 
	C304.924713,199.151749 300.895477,202.606674 296.553894,205.111618 
	C292.811310,207.270935 288.138336,207.768250 283.950195,209.213242 
	C264.836182,215.807922 246.056656,215.270554 227.563919,206.876648 
	C225.924438,206.132462 224.038971,205.949799 222.319916,205.355484 
	C220.785187,204.824875 218.861237,204.485840 217.898911,203.376846 
	C206.991150,190.806763 197.932663,177.290390 196.503113,160.004257 
	C194.577118,136.715378 197.218201,114.648872 214.136414,96.720337 
	C217.140152,93.537209 221.168976,91.082954 225.122284,89.075645 
	C242.141373,80.434143 260.079590,80.188690 278.186768,84.531937 
	C284.066986,85.942390 289.640533,88.712227 295.251312,91.102173 
	C296.481995,91.626404 297.365631,93.112030 298.242065,94.280235 
	C299.121704,95.452728 299.572937,97.010384 300.598907,97.996666 
	C303.069214,100.371361 307.117462,102.017334 308.143311,104.828049 
	C313.305634,118.972191 319.038971,133.079956 318.032104,148.685440 
	C317.785492,152.508347 316.141663,154.033752 312.444794,154.007767 
	C307.283661,153.971481 302.117493,154.037079 296.961517,154.251831 
	C295.403870,154.316711 293.872864,155.021042 291.832306,155.713348 
	C290.883545,155.986206 290.432159,155.978210 289.811584,155.698303 
	C288.100983,155.608185 286.559479,155.789978 284.578003,155.990601 
	C282.083221,155.993118 280.028381,155.976776 277.751526,155.657654 
	C269.017426,155.184097 260.505554,155.001175 251.992722,154.890152 
	C251.676651,154.886032 251.351440,155.583054 250.687119,155.964081 
	C249.885773,155.967911 249.427826,155.960999 248.748230,155.652008 
	C244.008575,154.904938 239.491318,154.170059 234.972137,154.158096 
	C233.171036,154.153336 230.363983,155.347198 229.818771,156.714645 
	C229.154602,158.380386 230.391602,160.804153 230.856812,163.233902 
	C230.971329,164.012619 231.035294,164.457489 231.099258,164.902344 
M231.985840,133.014725 
	C231.985840,133.014725 231.966919,132.976654 232.515533,133.335846 
	C233.351486,133.580566 234.187454,133.825287 235.475616,134.670990 
	C236.680527,135.103012 237.882904,135.902420 239.090729,135.910767 
	C252.651184,136.004303 266.212891,136.021164 279.772736,135.895248 
	C280.858704,135.885147 281.933441,134.665039 283.059967,133.480682 
	C283.075836,133.305191 283.091705,133.129715 283.600189,132.458389 
	C283.868347,130.591446 284.715759,128.589386 284.316559,126.878098 
	C279.381805,105.723495 255.793655,97.604156 239.308411,111.752464 
	C234.129700,116.197060 228.751678,121.697357 231.128098,130.686630 
	C231.426819,131.468719 231.725540,132.250793 231.985840,133.014725 
z"/>
<path fill="#62B480" opacity="1.000000" stroke="none" 
	d="
M952.291016,194.766098 
	C956.852112,200.592209 961.147034,206.168304 965.879333,212.312134 
	C964.044250,212.586273 962.406250,213.031372 960.765198,213.042984 
	C951.436462,213.108948 942.048157,212.428116 932.796570,213.274368 
	C925.509216,213.940933 921.741821,210.557297 917.935852,205.313126 
	C911.405884,196.315613 904.317993,187.724457 897.553406,178.894531 
	C896.524170,177.551086 895.973450,175.841125 894.788635,173.476990 
	C889.875244,179.663513 885.347168,185.146347 881.063782,190.814102 
	C875.882019,197.670731 870.979126,204.738739 865.759460,211.565262 
	C865.041809,212.503860 863.199646,212.978729 861.871399,212.991867 
	C851.210510,213.097382 840.547668,213.081177 829.886719,212.973999 
	C828.735901,212.962418 826.981689,212.414963 826.612915,211.609741 
	C826.217102,210.745636 826.800354,209.024063 827.516785,208.121521 
	C837.036499,196.128174 846.665771,184.221970 856.244019,172.274994 
	C861.840210,165.294830 867.270813,158.177505 873.011536,151.319107 
	C876.635864,146.989273 872.983948,144.198883 870.976685,141.588318 
	C857.666138,124.277191 844.113525,107.151825 830.584839,90.009354 
	C828.689270,87.607437 826.493469,85.442505 823.567017,82.206123 
	C837.436829,82.206123 849.979553,82.027107 862.505737,82.401299 
	C864.360840,82.456703 866.532227,84.828751 867.886414,86.632652 
	C876.237183,97.756866 884.330200,109.074539 892.674500,120.203720 
	C894.288818,122.356781 896.142334,123.272995 898.520447,120.100365 
	C907.521362,108.091980 916.825500,96.309319 926.133545,84.535011 
	C927.034668,83.395126 928.738281,82.224640 930.085022,82.206200 
	C941.909973,82.044243 953.738586,82.130333 965.565796,82.192032 
	C966.144348,82.195053 966.720520,82.654701 967.844849,83.135826 
	C962.954590,89.251640 958.298462,95.086487 953.629395,100.910934 
	C947.035889,109.135910 940.475281,117.387779 933.820251,125.562706 
	C928.658569,131.903229 923.512268,138.266861 918.078125,144.370041 
	C915.783325,146.947433 915.413391,148.511948 917.825684,151.439636 
	C925.765564,161.075623 933.256714,171.080307 940.978455,180.897522 
	C944.591675,185.491226 948.338562,189.979828 952.291016,194.766098 
z"/>
<path fill="#070808" opacity="1.000000" stroke="none" 
	d="
M551.023376,169.067047 
	C554.791321,171.512451 554.972778,174.582062 552.899719,178.312439 
	C549.226379,184.922485 545.991577,191.795197 541.988464,198.192047 
	C540.707581,200.238907 537.593262,201.153534 535.284973,202.531219 
	C534.733826,202.860214 533.854065,202.784119 533.458252,203.206345 
	C526.147400,211.004211 516.042114,210.466690 506.716614,212.166046 
	C502.113495,213.004837 497.442566,213.471588 492.399292,214.051758 
	C491.996277,213.996796 491.979248,213.978500 491.979248,213.978500 
	C483.688354,211.604691 475.382874,209.280197 467.113556,206.833481 
	C463.667267,205.813812 460.291901,204.551193 456.899353,203.356232 
	C456.293976,203.143005 455.589905,202.852570 455.222198,202.374222 
	C445.595428,189.851669 435.849091,177.466415 434.402039,160.750870 
	C432.717194,141.287918 433.769623,122.525337 445.194824,105.632072 
	C455.542206,90.332474 470.428009,83.335114 488.251495,82.126450 
	C498.201019,81.451759 508.179840,81.620781 517.858032,85.165817 
	C530.386902,89.755028 540.471802,97.304924 546.936401,108.961678 
	C554.214539,122.085548 558.078857,136.026459 553.639832,151.582703 
	C525.725159,151.994766 498.368134,152.004501 470.912354,151.819443 
	C470.209503,151.759460 469.605377,151.894257 468.999542,152.280579 
	C468.996704,152.699783 468.995605,152.867477 468.994476,153.035156 
	C468.994476,153.035156 468.999542,152.998260 468.847565,153.247528 
	C468.504730,154.284286 468.313843,155.071808 468.122986,155.859329 
	C465.174072,164.529373 471.042786,178.351562 479.954681,183.725647 
	C495.002533,192.799896 511.536743,190.041946 524.010071,176.522949 
	C526.324402,174.014603 529.078552,171.912018 532.208252,169.316742 
	C533.866272,169.020203 534.945679,169.029053 536.244507,169.339111 
	C540.725769,171.505890 544.935486,172.248093 549.305786,169.046936 
	C550.107239,169.045319 550.565308,169.056168 551.023376,169.067047 
M519.753784,117.865883 
	C515.056580,108.750031 507.878296,103.347221 497.370361,103.024132 
	C481.401611,102.533127 472.704163,109.222633 467.995392,125.549469 
	C466.378906,131.154373 467.615631,132.930328 473.519928,132.968369 
	C485.783997,133.047409 498.048859,133.000595 510.313416,133.001953 
	C524.482178,133.003510 525.474487,131.526917 519.753784,117.865883 
z"/>
<path fill="#070808" opacity="1.000000" stroke="none" 
	d="
M364.944153,211.722977 
	C364.126129,211.202271 363.245819,210.155731 362.499969,210.244110 
	C356.587860,210.944672 355.131683,207.218597 353.567902,202.534134 
	C344.089050,174.139023 334.377838,145.820969 324.634979,117.514786 
	C321.661682,108.876381 318.161621,100.416367 315.315277,91.739342 
	C314.632050,89.656609 315.596039,87.033531 316.360016,84.311119 
	C319.956787,83.991280 322.995972,84.019287 326.216644,84.324577 
	C328.472260,86.528046 330.331055,86.340179 332.441650,84.019226 
	C337.611145,84.013992 342.313049,84.023422 347.015015,84.032837 
	C350.525452,94.545677 354.175629,105.014420 357.511261,115.582428 
	C361.759155,129.040619 365.785553,142.569229 369.840576,156.087524 
	C371.635468,162.071182 373.266327,168.104065 374.971680,174.114594 
	C375.557983,174.274796 376.144318,174.434998 376.730621,174.595184 
	C378.648468,171.968277 381.467346,169.610077 382.343445,166.672485 
	C390.270905,140.090897 397.859741,113.408325 405.537750,86.752449 
	C405.720825,86.116844 405.786865,85.447540 406.420166,84.385574 
	C414.964417,84.006302 422.996094,84.035408 431.027740,84.064514 
	C431.122406,84.201538 431.187073,84.384193 431.316071,84.469009 
	C437.746674,88.696678 437.557953,88.630539 434.675354,96.995438 
	C427.683777,117.284050 420.854004,137.628677 414.020416,157.971344 
	C408.829407,173.424225 403.774109,188.922806 398.550171,204.364410 
	C397.758636,206.704178 396.378387,208.844788 394.694214,211.432068 
	C389.709259,211.757721 385.300537,211.728806 380.771362,211.492645 
	C379.803253,211.424438 378.955597,211.563461 377.705322,211.722137 
	C376.497040,211.725693 375.691376,211.709579 374.737183,211.467224 
	C373.429413,211.399185 372.270172,211.557404 370.671692,211.747467 
	C368.469635,211.760529 366.706909,211.741745 364.944153,211.722977 
z"/>
<path fill="#070808" opacity="1.000000" stroke="none" 
	d="
M808.015503,32.016106 
	C808.214722,34.505249 808.551086,36.993370 808.569519,39.483852 
	C808.584167,41.458694 808.036194,43.436184 808.033325,45.412926 
	C807.993286,73.214600 808.000122,101.016342 808.003784,128.818069 
	C808.005920,145.247192 807.936523,161.677002 808.066162,178.105194 
	C808.139282,187.366104 808.495789,196.626404 808.843506,205.882538 
	C808.950623,208.733032 808.263367,210.228287 804.998657,210.148636 
	C797.012146,209.953766 789.018616,209.956131 781.028870,210.014969 
	C776.642517,210.047272 775.402527,207.998474 775.500244,203.775085 
	C775.861816,188.162537 775.854919,172.541870 776.076721,156.925552 
	C776.281982,142.483398 776.700867,128.043808 776.836853,113.601311 
	C776.922729,104.480301 776.656616,95.356087 776.557800,86.233200 
	C776.365479,68.463303 776.179871,50.693329 776.450317,32.351059 
	C787.278015,31.857857 797.646790,31.936979 808.015503,32.016106 
z"/>
<path fill="#070808" opacity="1.000000" stroke="none" 
	d="
M597.021545,84.044052 
	C598.014343,87.181427 599.313904,90.260574 599.923279,93.470726 
	C600.709534,97.612984 600.943665,101.860023 601.979126,105.954346 
	C603.010986,105.238586 603.479370,104.630417 603.947754,104.022263 
	C606.996643,100.422501 609.986755,96.770935 613.105713,93.232956 
	C621.578979,83.621338 632.478455,81.812057 644.386841,83.994507 
	C645.458252,84.190872 647.052307,86.887398 646.801941,88.089134 
	C644.973572,96.865547 642.732727,105.555939 640.627747,114.274841 
	C639.562378,118.687584 637.003906,120.668152 632.300720,119.906319 
	C619.278320,117.796921 607.977051,124.804710 604.233948,137.470749 
	C603.281799,140.692612 603.260620,144.189590 602.973145,148.327820 
	C603.055054,152.417801 602.975586,155.740143 602.604370,159.276215 
	C600.448242,163.084885 599.905579,166.606750 602.915710,170.405762 
	C602.892029,182.952835 602.842834,195.027695 602.530579,207.279266 
	C601.868652,208.881836 601.469788,210.307678 600.638428,211.761505 
	C598.763000,211.761978 597.320068,211.734467 595.650574,211.431137 
	C587.809998,210.925842 580.196411,210.672470 572.580811,210.523621 
	C572.101013,210.514267 571.605164,211.320770 570.749695,211.764435 
	C569.892700,211.776657 569.402771,211.772141 568.830444,211.379120 
	C568.497131,208.361130 568.040588,205.732529 568.029175,203.101974 
	C567.961487,187.523438 568.068970,171.943741 567.913391,156.366455 
	C567.892334,154.257019 566.725952,152.159027 566.077515,149.707489 
	C566.077515,148.894669 566.089844,148.430099 566.102173,147.965515 
	C566.734192,145.850876 567.892944,143.741470 567.914062,141.620728 
	C568.069702,125.997116 567.947632,110.370956 568.039307,94.746330 
	C568.058655,91.444244 568.598999,88.145218 569.416260,84.415085 
	C578.962646,84.004944 587.992126,84.024498 597.021545,84.044052 
M634.044434,118.288086 
	C633.644958,118.320076 633.245483,118.352066 632.846008,118.384064 
	C632.887573,118.502327 632.940979,118.726089 632.968994,118.722946 
	C633.364014,118.678680 633.755493,118.603569 634.044434,118.288086 
z"/>
<path fill="#21211F" opacity="1.000000" stroke="none" 
	d="
M920.018555,330.067932 
	C908.094666,337.544067 895.601929,338.561737 882.741272,334.811432 
	C872.395996,331.794678 871.192932,322.796265 878.063904,314.570709 
	C880.932068,311.136993 884.387634,308.370148 884.395630,303.406189 
	C884.396912,302.620178 884.898865,301.830811 885.188477,301.050110 
	C887.233887,295.536041 887.409546,291.849976 885.885620,286.247314 
	C882.399353,273.429993 892.312317,261.287781 906.749451,261.079865 
	C911.189026,261.015961 915.688843,261.705139 920.076355,262.510773 
	C923.794495,263.193512 926.966003,263.152252 929.503784,259.889923 
	C930.192261,259.004852 931.226196,258.150452 932.270203,257.828033 
	C934.642578,257.095398 936.729736,253.306625 939.580322,256.659760 
	C941.352173,258.743927 940.065613,265.319519 937.269043,266.355408 
	C931.830566,268.369843 931.841858,271.878784 931.386780,277.025848 
	C930.372864,288.492188 924.046265,295.308258 908.044861,296.823242 
	C904.933594,297.117798 901.692261,296.209869 898.614807,296.625793 
	C896.731506,296.880310 895.046387,298.600861 893.272278,299.663086 
	C894.719421,301.093353 895.995422,303.476257 897.646301,303.772919 
	C902.349487,304.618073 907.203125,304.841705 912.001831,304.890320 
	C919.392456,304.965240 924.527100,307.770081 926.423706,313.240540 
	C928.343689,318.778442 925.841309,325.616150 920.018555,330.067932 
M902.793762,314.605255 
	C899.658508,314.238098 896.494751,314.027527 893.395386,313.463226 
	C889.718384,312.793762 887.018311,314.044128 885.756348,317.415863 
	C884.470703,320.850861 884.568542,324.172455 887.957703,326.801270 
	C895.108643,332.347839 905.988647,332.510437 912.810608,326.518463 
	C914.405640,325.117584 915.703369,322.134125 915.375610,320.173340 
	C915.102600,318.539734 912.432312,316.917816 910.485046,316.059204 
	C908.416931,315.147369 905.949646,315.140930 902.793762,314.605255 
M902.970642,270.456940 
	C901.387878,274.032196 899.252808,277.477234 898.370789,281.217743 
	C897.402710,285.322693 899.608948,289.156555 903.428894,290.433624 
	C905.651611,291.176697 909.059631,289.938416 911.314209,288.569977 
	C913.449707,287.273743 915.114929,284.833923 916.388123,282.561523 
	C919.123718,277.678864 918.124695,269.684601 914.429504,267.359039 
	C910.149475,264.665375 906.560791,266.884857 902.970642,270.456940 
z"/>
<path fill="#1F1F1E" opacity="1.000000" stroke="none" 
	d="
M456.803467,303.246643 
	C469.134247,309.466309 480.096497,306.706024 487.979614,295.702179 
	C488.749512,294.627563 489.573181,293.512054 490.610962,292.734619 
	C491.399170,292.144165 493.130829,291.516846 493.458496,291.856232 
	C494.362488,292.792480 495.499420,294.437653 495.220703,295.431152 
	C493.346832,302.110352 490.810059,308.021637 483.128937,310.579559 
	C469.588776,315.088623 456.693054,314.921906 444.361603,307.334534 
	C436.923401,302.757874 432.823608,295.724579 432.191803,287.197998 
	C430.740326,267.610291 437.746674,251.327866 455.857758,241.522751 
	C466.530396,235.744705 477.921051,235.953354 489.297699,239.020004 
	C493.229126,240.079773 497.025970,241.883774 500.614441,243.842285 
	C501.925079,244.557632 503.443726,246.932526 503.164124,248.163361 
	C502.028717,253.160934 500.276489,258.023438 498.619873,262.890839 
	C498.420197,263.477448 497.243561,264.273712 496.825012,264.123291 
	C496.101196,263.863190 495.334351,263.030945 495.082764,262.273529 
	C494.196350,259.605194 493.781494,256.760071 492.721741,254.172913 
	C487.559692,241.570618 473.301117,239.184509 462.623260,248.137192 
	C451.205597,257.710205 445.208649,281.816742 451.274384,295.400879 
	C452.513184,298.175140 454.723480,300.515625 456.803467,303.246643 
z"/>
<path fill="#1F1F1E" opacity="1.000000" stroke="none" 
	d="
M595.990723,285.988708 
	C597.000305,282.404388 598.370605,279.265625 598.728699,276.015320 
	C598.948364,274.021851 598.155640,270.642487 596.852051,270.064941 
	C595.057617,269.269989 591.612671,269.742920 590.180786,271.075714 
	C586.717834,274.299072 583.045288,277.914185 581.206177,282.133636 
	C577.647644,290.298096 575.252625,298.974152 572.458862,307.465637 
	C571.157654,311.420410 560.814697,314.138092 558.249817,310.880829 
	C557.382080,309.778809 557.562317,307.403595 557.989197,305.803802 
	C560.474487,296.490723 563.148560,287.227417 565.816406,277.963867 
	C567.013977,273.805603 567.910034,269.830261 563.386902,266.885223 
	C562.746338,266.468170 562.655945,265.206238 561.893921,263.282928 
	C568.123962,262.606873 573.774048,261.811432 579.447998,261.565521 
	C580.346802,261.526581 581.743713,263.844543 582.192566,265.294891 
	C582.590393,266.580292 581.989441,268.174774 581.735535,270.488281 
	C587.608704,264.335632 593.952942,260.851654 601.818115,261.124908 
	C610.735535,261.434723 615.158203,266.203857 613.684998,275.001617 
	C612.567871,281.673004 610.060425,288.108215 608.232849,294.665558 
	C607.408508,297.623352 606.733215,300.622681 605.815308,304.305267 
	C608.837891,303.923370 610.848083,303.669403 612.858337,303.415405 
	C613.237915,303.796844 613.617432,304.178253 613.997009,304.559662 
	C612.523865,306.349854 611.357056,308.617615 609.499817,309.809082 
	C607.190857,311.290314 604.382629,312.368896 601.664856,312.767365 
	C593.272705,313.997742 589.280579,309.410797 591.442688,301.184753 
	C592.751892,296.203705 594.418274,291.316528 595.990723,285.988708 
z"/>
<path fill="#21211F" opacity="1.000000" stroke="none" 
	d="
M551.797607,293.526672 
	C542.658142,310.133301 529.203735,316.411804 513.326477,311.783508 
	C504.998932,309.355927 500.359192,302.668518 499.970184,294.055695 
	C499.656342,287.106598 501.395172,280.821533 504.619110,274.955994 
	C511.982697,261.558899 535.027893,255.267273 548.481445,267.418671 
	C554.316895,272.689362 554.861206,280.302185 553.371460,287.858917 
	C553.018188,289.651154 552.417358,291.394531 551.797607,293.526672 
M528.483215,266.783142 
	C525.986206,268.898987 523.024780,270.659912 521.083496,273.200378 
	C516.201965,279.588806 514.925354,287.327820 514.134399,295.103058 
	C513.575623,300.596222 516.097168,306.028259 519.672363,307.516235 
	C522.776428,308.808136 527.991699,306.114014 531.396057,301.648956 
	C536.351074,295.150146 539.040100,287.781128 539.944580,279.738831 
	C540.780212,272.309082 535.689819,266.132263 528.483215,266.783142 
z"/>
<path fill="#1F1F1E" opacity="1.000000" stroke="none" 
	d="
M731.163696,277.112427 
	C733.981934,267.306488 736.588440,257.861633 739.434753,248.489609 
	C740.687012,244.366318 740.203064,241.405640 735.793701,239.671600 
	C734.796326,239.279343 734.114136,237.912445 733.514587,236.863953 
	C733.421936,236.701981 734.509766,235.435226 735.135803,235.357468 
	C742.631165,234.426498 750.142395,233.623703 758.577332,232.684036 
	C751.783447,256.794800 743.816284,279.821930 738.370605,304.918304 
	C741.495544,304.057190 742.988159,303.413910 744.522949,303.289246 
	C746.009521,303.168488 747.539429,303.581146 749.377197,303.798096 
	C745.509399,309.936951 735.808594,314.358978 730.047607,312.802368 
	C726.414246,311.820618 723.613098,309.594849 724.124878,305.357056 
	C724.718018,300.445374 725.469299,295.517700 726.661072,290.723541 
	C727.778015,286.230774 729.560120,281.903320 731.163696,277.112427 
z"/>
<path fill="#1F1F1E" opacity="1.000000" stroke="none" 
	d="
M780.068481,268.028931 
	C777.020691,278.017548 773.787170,287.954681 771.001404,298.015869 
	C769.551941,303.251099 772.276123,305.443237 777.532288,303.903809 
	C778.782349,303.537720 780.101257,303.230743 781.387268,303.235168 
	C782.063477,303.237488 783.223572,303.895721 783.301392,304.392944 
	C783.427673,305.199463 783.088989,306.347656 782.521179,306.951904 
	C777.331848,312.474915 766.346497,314.760437 759.870544,311.235992 
	C758.109985,310.277802 755.998474,307.333008 756.283508,305.687042 
	C757.802673,296.912750 759.996094,288.253052 762.031494,279.571320 
	C762.885498,275.928711 763.924927,272.329529 764.796631,269.026367 
	C764.120544,268.451874 764.010986,268.293335 763.864685,268.244293 
	C761.666565,267.507263 759.463623,266.784668 757.261780,266.058655 
	C758.978333,264.086700 760.491333,261.878937 762.450500,260.187988 
	C767.827698,255.546951 773.327026,251.038971 778.938110,246.684601 
	C780.048401,245.823013 781.873047,245.882050 783.368286,245.516510 
	C783.722351,246.982880 784.449158,248.476959 784.342712,249.909103 
	C784.184570,252.036362 783.410217,254.113953 782.945251,256.223053 
	C781.767883,261.562927 782.099670,261.981537 787.506104,262.096100 
	C788.336853,262.113708 789.168396,262.093262 790.431030,262.470642 
	C789.320007,263.900604 787.876831,265.161896 786.209106,265.944885 
	C784.264648,266.857819 782.124023,267.352661 780.068481,268.028931 
z"/>
<path fill="#1F1F1E" opacity="1.000000" stroke="none" 
	d="
M812.430908,303.275085 
	C815.983032,303.460449 816.972534,305.033386 814.335022,307.138794 
	C811.783813,309.175323 808.809509,310.917572 805.745728,312.032806 
	C796.050903,315.561798 790.131592,310.509918 792.496765,300.492676 
	C794.517395,291.934845 797.289673,283.550140 799.861511,275.129211 
	C800.739685,272.253845 801.538635,269.718597 798.083496,267.875000 
	C797.333496,267.474823 796.689941,265.831451 796.898804,264.982422 
	C797.093140,264.192444 798.444092,263.241272 799.363953,263.150177 
	C804.139709,262.677185 808.937439,262.389191 813.733582,262.171051 
	C817.201355,262.013306 818.024963,263.623444 816.983582,266.909637 
	C813.975342,276.402496 811.167358,285.958923 808.302856,295.497040 
	C807.920349,296.770569 807.583252,298.068726 807.366272,299.378876 
	C806.638733,303.771301 807.615662,304.575562 812.430908,303.275085 
z"/>
<path fill="#1F1F1E" opacity="1.000000" stroke="none" 
	d="
M873.854858,265.016907 
	C874.100952,265.260590 874.347046,265.504303 874.809692,266.323700 
	C875.355042,271.601501 875.683899,276.303619 876.012756,281.005707 
	C874.394348,286.587982 872.856384,292.195190 871.135437,297.745667 
	C869.322876,303.591919 869.866211,304.282715 875.737427,303.233246 
	C876.442932,303.107178 877.242310,303.506714 878.050171,303.673340 
	C875.733826,309.590454 866.518982,314.452911 860.957458,312.927155 
	C855.806030,311.513885 853.948975,308.469635 855.495544,302.533569 
	C857.504578,294.822845 860.265076,287.304626 862.180054,279.574188 
	C862.951843,276.458557 862.341187,273.000427 861.974121,269.103607 
	C859.019775,268.304657 856.450928,268.100250 853.882202,267.895874 
	C853.875183,267.471741 853.868164,267.047638 854.161987,266.193115 
	C854.986450,265.215515 855.510132,264.668304 856.033752,264.121063 
	C856.033752,264.121063 856.051025,264.059387 856.212646,263.884521 
	C856.575928,263.514740 856.771484,263.313995 856.960999,263.107361 
	C857.134888,263.096710 857.308838,263.086029 858.200562,263.039459 
	C863.897278,263.674683 868.876038,264.345795 873.854858,265.016907 
z"/>
<path fill="#1F1F1E" opacity="1.000000" stroke="none" 
	d="
M843.934265,282.963684 
	C843.689880,283.494171 843.445435,284.024658 842.781494,285.014832 
	C841.260010,289.326538 840.158020,293.178558 839.056030,297.030579 
	C838.310913,300.942291 837.995544,305.015625 836.614258,308.688049 
	C836.042847,310.207184 833.246765,311.643707 831.360901,311.787720 
	C821.595947,312.533508 820.781189,311.353943 823.579163,301.970673 
	C826.098450,293.521973 828.634033,285.078003 831.110413,276.616760 
	C832.397400,272.219269 833.200134,267.936768 826.458374,266.690613 
	C826.489258,266.157562 826.520203,265.624512 826.551086,265.091492 
	C828.706665,264.348602 830.862244,263.605713 833.799744,262.944214 
	C836.869690,263.236847 839.196594,263.263824 841.430054,263.734253 
	C842.612061,263.983246 844.527100,264.939484 844.580383,265.685608 
	C844.942688,270.766418 844.897705,275.876221 844.984253,280.976685 
	C844.984253,280.976685 844.994995,281.004150 844.777832,281.083801 
	C844.351807,281.763519 844.143005,282.363586 843.934265,282.963684 
z"/>
<path fill="#1F1F1E" opacity="1.000000" stroke="none" 
	d="
M706.051880,268.027344 
	C706.104065,267.578033 706.156189,267.128693 706.540710,266.186279 
	C711.503662,263.494476 716.182678,262.295746 721.051392,265.005219 
	C721.051392,265.005219 721.043518,265.495514 720.863586,265.917603 
	C720.453308,266.577301 720.231750,266.822754 720.018921,267.076111 
	C717.963379,274.891174 715.932373,282.712830 713.835938,290.516907 
	C713.280640,292.584167 712.412170,294.568695 711.881226,296.640869 
	C710.204163,303.185547 710.608459,303.653748 717.265137,303.584015 
	C717.680359,303.579681 718.100342,304.023712 718.501953,304.250031 
	C716.644897,310.336761 709.224548,313.741089 700.160767,311.988892 
	C699.197815,305.326965 698.619812,299.235565 698.041809,293.144165 
	C698.100708,292.952759 698.159546,292.761353 698.532837,292.128143 
	C699.276184,290.148102 699.705139,288.609863 700.134155,287.071625 
	C700.416748,286.238464 700.699402,285.405273 701.379028,284.104431 
	C702.164490,282.722839 702.552917,281.808929 702.941406,280.895050 
	C703.240601,279.829926 703.539795,278.764832 704.055176,277.122192 
	C704.489258,275.981689 704.707092,275.418732 704.924927,274.855743 
	C704.913330,274.451721 704.901794,274.047699 705.119141,273.101746 
	C705.582642,271.048981 705.817261,269.538177 706.051880,268.027344 
z"/>
<path fill="#21211F" opacity="1.000000" stroke="none" 
	d="
M624.184082,280.981171 
	C624.199219,278.948517 624.214294,276.915894 624.480713,274.302246 
	C625.142883,273.123627 625.553833,272.525970 625.964722,271.928345 
	C626.033142,271.201660 626.101624,270.474945 626.441528,269.294006 
	C627.142395,268.569336 627.571899,268.298889 628.001404,268.028473 
	C628.277100,267.526123 628.552795,267.023773 629.339966,266.229492 
	C632.246094,265.294250 634.640869,264.650970 636.497925,264.152130 
	C635.918213,266.284607 635.412476,268.145142 634.906738,270.005676 
	C633.499756,273.137390 634.541626,275.239685 637.436096,276.930145 
	C642.911804,280.128113 648.280029,283.511292 653.662109,286.866730 
	C654.164795,287.180115 654.448120,287.845367 654.786865,288.989716 
	C654.956055,293.048187 655.912781,296.621490 655.228455,299.846527 
	C653.924622,305.991241 644.824158,311.530640 640.578613,309.787872 
	C641.721802,307.943634 642.893066,306.054108 644.064331,304.164581 
	C644.275269,298.771576 641.663757,295.289886 636.853882,293.100128 
	C634.644897,292.094421 632.625854,290.671387 630.183289,288.906982 
	C627.958618,285.911285 626.071350,283.446228 624.184082,280.981171 
z"/>
<path fill="#21211F" opacity="1.000000" stroke="none" 
	d="
M665.248657,303.989410 
	C665.209839,302.593323 665.171021,301.197205 665.275879,299.235901 
	C665.621643,298.470703 665.816406,298.263824 666.003784,298.050018 
	C666.084412,297.596222 666.165100,297.142456 666.522461,296.167511 
	C667.176941,294.727966 667.554688,293.809570 667.932434,292.891174 
	C667.924255,292.477692 667.916016,292.064178 668.127441,291.045105 
	C670.137573,285.117065 671.705322,279.705261 673.791260,274.501190 
	C675.374634,270.551025 676.445007,267.130127 670.139709,264.816376 
	C675.678650,264.086639 679.841736,263.538177 684.004883,262.989685 
	C685.063965,263.010132 686.123108,263.030579 687.494263,263.430481 
	C687.544617,266.210358 687.282898,268.610748 687.021179,271.011108 
	C685.046143,277.459717 683.071106,283.908325 680.652710,290.866882 
	C679.319153,294.473145 677.359924,297.747253 677.837158,300.616119 
	C678.321716,303.529358 681.210083,306.042786 683.376892,309.216248 
	C682.028137,309.653534 680.107300,310.408722 678.119751,310.886444 
	C675.745361,311.457123 673.313904,311.790314 670.907166,312.226379 
	C669.285461,311.060303 667.663757,309.894196 666.114502,308.139343 
	C665.874207,306.363525 665.561401,305.176483 665.248657,303.989410 
z"/>
<path fill="#21211F" opacity="1.000000" stroke="none" 
	d="
M602.896118,159.062485 
	C602.975586,155.740143 603.055054,152.417801 603.162415,148.661407 
	C603.461365,150.189011 603.958374,152.149551 603.968140,154.112534 
	C604.056152,171.772903 603.956604,189.434875 604.157043,207.093582 
	C604.207825,211.567062 602.801575,213.370987 598.152039,213.237106 
	C588.662781,212.963837 579.160278,213.055344 569.664734,213.151154 
	C566.270935,213.185394 564.880432,211.851990 564.886597,208.434998 
	C564.960327,167.782288 564.965332,127.129471 565.007446,86.476692 
	C565.007935,86.042679 565.263306,85.608932 566.064209,85.212372 
	C566.064209,105.820030 566.064209,126.427696 566.083191,147.500427 
	C566.089844,148.430099 566.077515,148.894669 566.059204,150.169617 
	C566.076416,169.445908 566.073181,187.911926 566.158325,206.377548 
	C566.168213,208.515472 565.307983,211.355698 568.912903,211.767624 
	C569.402771,211.772141 569.892700,211.776657 571.206543,211.781921 
	C579.979431,211.757416 587.928284,211.732178 595.877136,211.706955 
	C597.320068,211.734467 598.763000,211.761978 600.941528,211.643219 
	C602.049255,210.032150 602.421448,208.567352 602.793640,207.102539 
	C602.842834,195.027695 602.892029,182.952835 602.934082,169.955841 
	C602.916626,165.709946 602.906311,162.386215 602.896118,159.062485 
z"/>
<path fill="#1A1A18" opacity="1.000000" stroke="none" 
	d="
M635.127686,269.732849 
	C635.412476,268.145142 635.918213,266.284607 636.497925,264.152130 
	C634.640869,264.650970 632.246094,265.294250 629.491699,265.986420 
	C633.152527,264.371765 637.051086,261.928345 641.229370,261.275604 
	C645.008667,260.685211 649.141541,261.814423 653.032227,262.608307 
	C658.840088,263.793335 660.446289,266.886414 658.462036,272.414856 
	C657.759583,274.372131 656.886047,276.268036 655.676758,279.193207 
	C652.037048,273.397278 650.526978,266.255524 642.929810,266.463745 
	C640.377319,266.533722 637.874329,268.409546 635.127686,269.732849 
z"/>
<path fill="#1A1A18" opacity="1.000000" stroke="none" 
	d="
M671.193848,312.428955 
	C673.313904,311.790314 675.745361,311.457123 678.119751,310.886444 
	C680.107300,310.408722 682.028137,309.653534 683.376892,309.216248 
	C681.210083,306.042786 678.321716,303.529358 677.837158,300.616119 
	C677.359924,297.747253 679.319153,294.473145 680.472534,291.187561 
	C680.674866,292.973816 680.350037,294.986328 680.620300,296.915497 
	C680.953857,299.297211 681.782104,301.609619 682.396606,303.951965 
	C685.231445,303.113403 688.533630,302.914062 690.780579,301.271362 
	C693.472229,299.303589 695.263000,296.103699 697.742859,293.290771 
	C698.619812,299.235565 699.197815,305.326965 699.786926,311.841736 
	C698.447144,309.622284 697.096130,306.979431 695.519043,303.894196 
	C688.752380,309.560028 681.524841,315.184753 671.193848,312.428955 
z"/>
<path fill="#1A1A18" opacity="1.000000" stroke="none" 
	d="
M643.746155,304.298889 
	C642.893066,306.054108 641.721802,307.943634 640.578613,309.787872 
	C644.824158,311.530640 653.924622,305.991241 655.228455,299.846527 
	C655.912781,296.621490 654.956055,293.048187 654.847961,289.327393 
	C659.933838,296.232483 658.038147,305.092590 650.503174,309.335571 
	C641.371582,314.477600 631.959351,314.453796 622.578979,310.329498 
	C625.426758,310.218964 628.096069,310.368042 631.297791,310.546814 
	C630.682678,309.023895 630.331360,308.154205 629.980103,307.284515 
	C634.929626,308.536285 639.527222,308.128052 643.746155,304.298889 
z"/>
<path fill="#1A1A18" opacity="1.000000" stroke="none" 
	d="
M845.280884,280.817139 
	C844.897705,275.876221 844.942688,270.766418 844.580383,265.685608 
	C844.527100,264.939484 842.612061,263.983246 841.430054,263.734253 
	C839.196594,263.263824 836.869690,263.236847 834.178284,262.904297 
	C837.169922,262.313599 840.559326,261.582275 843.962769,261.510010 
	C845.236267,261.482941 846.647949,262.864685 847.805847,263.832397 
	C849.124512,264.934570 850.229858,266.291870 851.894531,267.845398 
	C852.899170,268.087311 853.437256,268.022095 853.975403,267.956848 
	C853.975403,267.956848 853.906738,267.960083 853.894409,267.927979 
	C856.450928,268.100250 859.019775,268.304657 861.770203,268.813965 
	C857.550232,267.861145 854.758484,270.650116 852.068481,273.282410 
	C849.734253,275.566528 847.728455,278.186218 845.280884,280.817139 
z"/>
<path fill="#21211F" opacity="1.000000" stroke="none" 
	d="
M818.875244,243.057556 
	C819.135681,243.265579 819.382507,243.488617 819.790527,244.342896 
	C819.958008,247.273636 819.950684,249.588226 819.943420,251.902802 
	C819.943420,251.902802 819.903381,251.932800 819.550293,252.067932 
	C812.309204,255.175644 810.519531,254.243301 808.869934,246.823044 
	C808.869934,246.823044 808.858093,246.387833 809.235352,246.103149 
	C812.700195,244.898148 815.787720,243.977859 818.875244,243.057556 
z"/>
<path fill="#1F1F1E" opacity="1.000000" stroke="none" 
	d="
M289.980743,155.970215 
	C290.432159,155.978210 290.883545,155.986206 291.673584,155.980743 
	C300.585724,155.967300 309.159271,155.967300 317.732849,155.967300 
	C317.732880,156.307373 317.732910,156.647446 317.732971,156.987518 
	C315.117065,156.987518 312.501129,156.987808 309.885223,156.987457 
	C286.951935,156.984406 264.018616,156.981445 241.085312,156.978012 
	C233.244690,156.976837 233.244690,156.976257 231.286774,164.615082 
	C231.035294,164.457489 230.971329,164.012619 230.875366,162.812073 
	C230.407272,157.358459 232.571014,155.612473 237.199493,155.950348 
	C241.102249,156.235229 245.044876,155.973755 248.969864,155.954102 
	C249.427826,155.960999 249.885773,155.967911 251.152069,155.978088 
	C260.631439,155.974380 269.302521,155.967407 277.973572,155.960434 
	C280.028381,155.976776 282.083221,155.993118 284.991211,156.001984 
	C287.223206,155.986420 288.601959,155.978317 289.980743,155.970215 
z"/>
<path fill="#1A1A18" opacity="1.000000" stroke="none" 
	d="
M683.633118,262.821533 
	C679.841736,263.538177 675.678650,264.086639 670.139709,264.816376 
	C676.445007,267.130127 675.374634,270.551025 673.791260,274.501190 
	C671.705322,279.705261 670.137573,285.117065 668.136597,290.734985 
	C669.192139,285.794800 670.212097,280.483002 671.801697,275.347565 
	C673.076416,271.229462 673.422668,268.018402 668.105103,267.328796 
	C668.865234,262.074127 673.504456,260.744354 683.633118,262.821533 
z"/>
<path fill="#1A1A18" opacity="1.000000" stroke="none" 
	d="
M469.463318,153.014709 
	C468.995605,152.867477 468.996704,152.699783 469.334473,152.279633 
	C470.117798,152.022858 470.564484,152.018539 471.011139,152.014221 
	C498.368134,152.004501 525.725159,151.994766 553.553101,151.966431 
	C554.514893,152.008911 555.005737,152.069992 555.496643,152.131058 
	C555.497986,152.418793 555.499390,152.706543 555.500732,152.994278 
	C526.977905,152.994278 498.455017,152.994278 469.463318,153.014709 
z"/>
<path fill="#21211F" opacity="1.000000" stroke="none" 
	d="
M936.827637,297.767761 
	C937.140442,297.028412 937.453308,296.289062 938.308960,295.291809 
	C944.114746,295.792572 945.381470,297.297211 944.879822,302.461700 
	C944.704956,304.262085 944.249878,306.035278 943.922729,307.820892 
	C943.922729,307.820892 943.836609,307.850098 943.457031,307.852661 
	C941.682556,307.597839 940.287781,307.340485 938.892944,307.083099 
	C938.892944,307.083099 938.903442,307.064178 938.866150,306.678772 
	C938.161804,303.451477 937.494751,300.609619 936.827637,297.767761 
z"/>
<path fill="#21211F" opacity="1.000000" stroke="none" 
	d="
M629.734253,307.121490 
	C630.331360,308.154205 630.682678,309.023895 631.297791,310.546814 
	C628.096069,310.368042 625.426758,310.218964 622.331543,310.092377 
	C621.905640,310.114838 621.942566,310.095581 621.846252,309.729614 
	C621.238831,307.987000 620.525757,306.648132 620.259277,305.225616 
	C619.725037,302.373962 620.917053,301.163086 623.837036,302.051971 
	C624.100769,302.258728 624.364563,302.465485 624.979370,303.010132 
	C625.556335,303.567993 625.791504,303.777557 626.036011,303.976654 
	C626.036011,303.976654 626.000061,304.002441 626.172119,304.159302 
	C626.565247,304.545532 626.796509,304.764160 627.037842,304.972015 
	C627.037842,304.972015 627.001770,305.001923 627.171997,305.162079 
	C627.557678,305.557343 627.783569,305.781952 628.019897,305.996063 
	C628.509399,306.316864 628.998901,306.637665 629.734253,307.121490 
z"/>
<path fill="#1A1A18" opacity="1.000000" stroke="none" 
	d="
M938.824829,307.404846 
	C940.287781,307.340485 941.682556,307.597839 943.415894,307.872070 
	C942.537842,313.293762 938.557983,316.027100 932.281250,314.983917 
	C934.649231,312.329987 936.702942,310.028290 938.824829,307.404846 
z"/>
<path fill="#1A1A18" opacity="1.000000" stroke="none" 
	d="
M808.580688,247.023407 
	C810.519531,254.243301 812.309204,255.175644 819.529175,252.081421 
	C818.995850,253.400040 818.169312,256.027557 817.257690,256.057434 
	C814.546509,256.146271 811.129211,255.998199 809.291016,254.422531 
	C807.913269,253.241486 808.550964,249.709198 808.580688,247.023407 
z"/>
<path fill="#1A1A18" opacity="1.000000" stroke="none" 
	d="
M623.816772,301.694031 
	C620.917053,301.163086 619.725037,302.373962 620.259277,305.225616 
	C620.525757,306.648132 621.238831,307.987000 621.839050,309.724609 
	C620.646423,308.713531 618.400818,307.421875 618.278381,305.953308 
	C618.001099,302.626434 618.770203,299.212311 619.113892,295.833679 
	C619.672546,295.665894 620.231201,295.498108 620.789856,295.330322 
	C621.792053,297.332245 622.794250,299.334167 623.816772,301.694031 
z"/>
<path fill="#21211F" opacity="1.000000" stroke="none" 
	d="
M364.512817,211.743317 
	C366.706909,211.741745 368.469635,211.760529 371.048279,211.767303 
	C372.871368,211.734695 373.878540,211.714081 374.885742,211.693466 
	C375.691376,211.709579 376.497040,211.725693 378.052673,211.741760 
	C379.499084,211.727783 380.195465,211.713837 380.891846,211.699890 
	C385.300537,211.728806 389.709259,211.757721 394.586975,211.750046 
	C395.503601,211.893005 395.951202,212.072540 397.689209,212.769714 
	C383.189148,212.769714 370.012787,212.769714 356.836395,212.769714 
	C356.825348,212.434372 356.814301,212.099014 356.803223,211.763672 
	C359.229309,211.763672 361.655396,211.763672 364.512817,211.743317 
z"/>
<path fill="#1A1A18" opacity="1.000000" stroke="none" 
	d="
M83.593933,157.778351 
	C81.926224,157.966324 79.892433,157.976227 77.050362,157.993256 
	C75.499153,158.003082 74.756218,158.005753 74.013283,158.008438 
	C67.326263,157.995728 60.639240,157.983002 53.101082,157.971741 
	C51.481308,157.971359 50.712666,157.969528 49.944027,157.967712 
	C49.305065,158.751984 48.666103,159.536240 47.979904,160.637817 
	C47.912018,161.118484 47.949585,161.338806 47.857826,161.432587 
	C47.698410,161.595490 47.459072,161.680191 47.253242,161.797668 
	C48.220203,160.246826 49.166382,157.364670 50.157330,157.349167 
	C61.176846,157.177124 72.203278,157.448547 83.593933,157.778351 
z"/>
<path fill="#1A1A18" opacity="1.000000" stroke="none" 
	d="
M431.465912,84.053497 
	C422.996094,84.035408 414.964417,84.006302 406.463745,83.993156 
	C405.830505,84.016922 405.598145,84.095650 405.516602,84.017357 
	C405.359711,83.866684 405.288147,83.627129 405.181213,83.424438 
	C406.643890,83.295517 408.106262,83.059456 409.569336,83.054871 
	C419.903473,83.022499 430.237762,83.037674 440.581024,84.042480 
	C437.688690,84.042480 434.796387,84.042480 431.465912,84.053497 
z"/>
<path fill="#070808" opacity="1.000000" stroke="none" 
	d="
M780.523804,268.024017 
	C782.124023,267.352661 784.264648,266.857819 786.209106,265.944885 
	C787.876831,265.161896 789.320007,263.900604 790.859802,262.471649 
	C791.871582,262.792603 792.886047,263.492737 793.900513,264.192871 
	C792.846008,265.411438 791.937012,267.471863 790.708496,267.684204 
	C787.540710,268.231903 784.231689,267.962250 780.523804,268.024017 
z"/>
<path fill="#1A1A18" opacity="1.000000" stroke="none" 
	d="
M721.193237,264.716248 
	C716.182678,262.295746 711.503662,263.494476 706.565002,265.847839 
	C707.211121,264.703949 707.942078,262.607666 709.163879,262.265808 
	C712.103943,261.443207 715.287781,261.138641 718.343445,261.278137 
	C719.386475,261.325745 720.340454,263.321625 721.193237,264.716248 
z"/>
<path fill="#1A1A18" opacity="1.000000" stroke="none" 
	d="
M326.035187,84.047295 
	C322.995972,84.019287 319.956787,83.991280 316.463562,83.972900 
	C315.846527,83.950500 315.683502,83.918472 315.520508,83.886444 
	C315.598175,83.625137 315.674255,83.135483 315.753784,83.134926 
	C325.075287,83.069252 334.397003,83.038994 343.718719,83.009323 
	C345.450104,83.003807 347.181458,83.008530 348.894501,83.701813 
	C348.439667,83.802742 347.984863,83.903671 347.272522,84.018723 
	C342.313049,84.023422 337.611145,84.013992 332.017853,84.012634 
	C329.429382,84.029564 327.732300,84.038429 326.035187,84.047295 
z"/>
<path fill="#1A1A18" opacity="1.000000" stroke="none" 
	d="
M944.232544,307.673218 
	C944.249878,306.035278 944.704956,304.262085 944.879822,302.461700 
	C945.381470,297.297211 944.114746,295.792572 938.455383,295.027771 
	C940.085632,294.722839 943.225098,293.486633 943.919067,294.310455 
	C945.637817,296.350769 946.816406,299.275879 947.082275,301.957520 
	C947.256287,303.712311 945.457581,305.662750 944.232544,307.673218 
z"/>
<path fill="#21211F" opacity="1.000000" stroke="none" 
	d="
M551.395630,169.052582 
	C550.565308,169.056168 550.107239,169.045319 548.847168,169.031082 
	C544.038513,169.031113 540.031860,169.034500 536.025146,169.037888 
	C534.945679,169.029053 533.866272,169.020203 532.382141,169.038208 
	C531.040894,168.998566 530.104309,168.932037 529.167786,168.865524 
	C529.178223,168.606461 529.188721,168.347412 529.199219,168.088348 
	C538.549927,168.088348 547.900635,168.088348 557.251343,168.088348 
	C557.253479,168.404953 557.255615,168.721542 557.257812,169.038147 
	C555.427856,169.038147 553.597900,169.038147 551.395630,169.052582 
z"/>
<path fill="#1F1F1E" opacity="1.000000" stroke="none" 
	d="
M648.820801,124.046783 
	C652.062500,124.031906 655.094788,124.004799 658.903259,123.964386 
	C660.107117,123.945770 660.534851,123.940453 660.962585,123.935135 
	C665.671326,123.951035 670.380005,123.966942 675.557129,123.957169 
	C677.277466,124.016663 678.529541,124.101845 679.781555,124.187027 
	C679.759949,124.369019 679.738342,124.551003 679.716736,124.732986 
	C669.165161,124.732986 658.613647,124.733772 648.062073,124.725304 
	C647.909119,124.725182 647.756226,124.609665 647.603333,124.548004 
	C647.939331,124.376854 648.275391,124.205704 648.820801,124.046783 
z"/>
<path fill="#62B480" opacity="1.000000" stroke="none" 
	d="
M808.187805,31.879341 
	C797.646790,31.936979 787.278015,31.857857 776.449707,31.881426 
	C778.500732,31.756472 781.009094,31.364897 783.522278,31.331356 
	C791.650757,31.222878 799.781067,31.245430 807.910645,31.221952 
	C808.073730,31.221481 808.270020,31.231951 808.386597,31.321196 
	C808.448792,31.368811 808.373352,31.596283 808.187805,31.879341 
z"/>
<path fill="#21211F" opacity="1.000000" stroke="none" 
	d="
M794.990051,213.214142 
	C788.270752,213.211502 782.049194,213.211502 775.827637,213.211502 
	C775.834534,212.844406 775.841431,212.477325 775.848328,212.110229 
	C786.668945,212.110229 797.489563,212.110229 808.310181,212.110229 
	C808.324402,212.479080 808.338562,212.847946 808.352783,213.216797 
	C804.064453,213.216797 799.776123,213.216797 794.990051,213.214142 
z"/>
<path fill="#1A1A18" opacity="1.000000" stroke="none" 
	d="
M597.219482,84.005859 
	C587.992126,84.024498 578.962646,84.004944 569.464111,83.997940 
	C569.022644,83.746193 569.048584,83.250450 569.078003,83.250244 
	C578.543030,83.182434 588.008362,83.147766 597.473633,83.123985 
	C597.610413,83.123642 597.747620,83.268608 597.884583,83.345734 
	C597.728882,83.553032 597.573181,83.760345 597.219482,84.005859 
z"/>
<path fill="#21211F" opacity="1.000000" stroke="none" 
	d="
M756.475586,211.739151 
	C757.410706,211.728928 757.882202,211.746094 758.707336,211.741333 
	C758.806091,212.180893 758.555176,213.043243 758.295959,213.045715 
	C750.191406,213.123352 742.086121,213.126373 733.980896,213.114288 
	C732.701538,213.112381 731.422302,212.984344 730.146912,211.766525 
	C738.768616,211.766525 747.390381,211.766525 756.475586,211.739151 
z"/>
<path fill="#1A1A18" opacity="1.000000" stroke="none" 
	d="
M876.199463,280.678223 
	C875.683899,276.303619 875.355042,271.601501 875.001587,266.498749 
	C879.687500,270.429688 877.856689,275.408020 876.199463,280.678223 
z"/>
<path fill="#1A1A18" opacity="1.000000" stroke="none" 
	d="
M873.770020,264.675354 
	C868.876038,264.345795 863.897278,263.674683 858.459229,263.001770 
	C863.175232,259.756989 868.924194,260.245880 873.770020,264.675354 
z"/>
<path fill="#21211F" opacity="1.000000" stroke="none" 
	d="
M603.754761,103.656784 
	C603.479370,104.630417 603.010986,105.238586 602.259216,105.950119 
	C601.975830,98.821899 601.975830,91.590302 601.975830,84.358711 
	C602.504517,84.351555 603.033142,84.344398 603.561829,84.337250 
	C603.561829,90.655266 603.561829,96.973289 603.754761,103.656784 
z"/>
<path fill="#1A1A18" opacity="1.000000" stroke="none" 
	d="
M839.314270,296.841125 
	C840.158020,293.178558 841.260010,289.326538 842.597656,285.242615 
	C841.746399,288.890991 840.659424,292.771332 839.314270,296.841125 
z"/>
<path fill="#1A1A18" opacity="1.000000" stroke="none" 
	d="
M818.621216,242.813660 
	C815.787720,243.977859 812.700195,244.898148 809.250244,245.885956 
	C810.767029,240.937347 813.179199,240.076324 818.621216,242.813660 
z"/>
<path fill="#1A1A18" opacity="1.000000" stroke="none" 
	d="
M687.266418,270.844788 
	C687.282898,268.610748 687.544617,266.210358 687.889771,263.469757 
	C690.011108,264.938629 690.011108,264.938629 687.266418,270.844788 
z"/>
<path fill="#1A1A18" opacity="1.000000" stroke="none" 
	d="
M936.555908,297.993286 
	C937.494751,300.609619 938.161804,303.451477 938.872620,306.676086 
	C935.811279,304.775452 933.565674,302.236206 936.555908,297.993286 
z"/>
<path fill="#1A1A18" opacity="1.000000" stroke="none" 
	d="
M624.207520,281.327454 
	C626.071350,283.446228 627.958618,285.911285 629.885498,288.738922 
	C628.027039,286.625580 626.129028,284.149658 624.207520,281.327454 
z"/>
<path fill="#1A1A18" opacity="1.000000" stroke="none" 
	d="
M820.254822,251.743591 
	C819.950684,249.588226 819.958008,247.273636 819.958374,244.527618 
	C822.484680,246.401123 822.750610,248.892181 820.254822,251.743591 
z"/>
<path fill="#1A1A18" opacity="1.000000" stroke="none" 
	d="
M699.915649,287.325165 
	C699.705139,288.609863 699.276184,290.148102 698.605896,291.836761 
	C698.808777,290.517700 699.252930,289.048187 699.915649,287.325165 
z"/>
<path fill="#1A1A18" opacity="1.000000" stroke="none" 
	d="
M705.828125,268.246399 
	C705.817261,269.538177 705.582642,271.048981 705.128540,272.798645 
	C705.140747,271.513489 705.372559,269.989471 705.828125,268.246399 
z"/>
<path fill="#1A1A18" opacity="1.000000" stroke="none" 
	d="
M665.198181,304.340546 
	C665.561401,305.176483 665.874207,306.363525 666.005737,307.810913 
	C665.598938,306.944702 665.373352,305.818176 665.198181,304.340546 
z"/>
<path fill="#1A1A18" opacity="1.000000" stroke="none" 
	d="
M702.656006,281.047119 
	C702.552917,281.808929 702.164490,282.722839 701.539429,283.812073 
	C701.658691,283.058044 702.014709,282.128632 702.656006,281.047119 
z"/>
<path fill="#1A1A18" opacity="1.000000" stroke="none" 
	d="
M667.661987,293.058167 
	C667.554688,293.809570 667.176941,294.727966 666.564697,295.824341 
	C666.684021,295.076569 667.037781,294.150848 667.661987,293.058167 
z"/>
<path fill="#1A1A18" opacity="1.000000" stroke="none" 
	d="
M855.736755,264.191040 
	C855.510132,264.668304 854.986450,265.215515 854.190552,265.875641 
	C854.425415,265.412689 854.932617,264.836853 855.736755,264.191040 
z"/>
<path fill="#070808" opacity="1.000000" stroke="none" 
	d="
M492.002441,214.006775 
	C491.371216,214.294067 490.733856,214.571381 490.096466,214.848694 
	C490.035187,214.633896 489.973907,214.419098 489.912628,214.204315 
	C490.439178,214.131577 490.965729,214.058838 491.735779,213.982300 
	C491.979248,213.978500 491.996277,213.996796 492.002441,214.006775 
z"/>
<path fill="#1A1A18" opacity="1.000000" stroke="none" 
	d="
M844.136963,282.763855 
	C844.143005,282.363586 844.351807,281.763519 844.765015,281.074951 
	C844.759583,281.512329 844.549622,282.038147 844.136963,282.763855 
z"/>
<path fill="#1A1A18" opacity="1.000000" stroke="none" 
	d="
M704.709778,274.966187 
	C704.707092,275.418732 704.489258,275.981689 704.093506,276.791077 
	C704.108582,276.383881 704.301636,275.730225 704.709778,274.966187 
z"/>
<path fill="#1A1A18" opacity="1.000000" stroke="none" 
	d="
M625.712891,272.064880 
	C625.553833,272.525970 625.142883,273.123627 624.504517,273.867218 
	C624.671692,273.409271 625.066345,272.805359 625.712891,272.064880 
z"/>
<path fill="#1A1A18" opacity="1.000000" stroke="none" 
	d="
M468.268433,155.595367 
	C468.313843,155.071808 468.504730,154.284286 468.859772,153.233459 
	C468.820618,153.757248 468.617279,154.544327 468.268433,155.595367 
z"/>
<path fill="#1F1F1E" opacity="1.000000" stroke="none" 
	d="
M853.645935,267.918518 
	C853.437256,268.022095 852.899170,268.087311 852.176025,268.037598 
	C852.432800,267.908508 852.874634,267.894348 853.645935,267.918518 
z"/>
<path fill="#1A1A18" opacity="1.000000" stroke="none" 
	d="
M310.470673,83.911423 
	C310.531128,83.885857 310.544769,84.131699 310.544769,84.131699 
	C310.544769,84.131699 310.410217,83.936996 310.470673,83.911423 
z"/>
<path fill="#070808" opacity="1.000000" stroke="none" 
	d="
M156.070190,209.478775 
	C156.086105,209.521210 156.054276,209.436340 156.070190,209.478775 
z"/>
<path fill="#1A1A18" opacity="1.000000" stroke="none" 
	d="
M627.754883,268.107056 
	C627.571899,268.298889 627.142395,268.569336 626.479614,268.930817 
	C626.667114,268.743103 627.087769,268.464355 627.754883,268.107056 
z"/>
<path fill="#1A1A18" opacity="1.000000" stroke="none" 
	d="
M625.890564,303.787842 
	C625.791504,303.777557 625.556335,303.567993 625.165039,303.179688 
	C625.280762,303.165771 625.529297,303.361633 625.890564,303.787842 
z"/>
<path fill="#1A1A18" opacity="1.000000" stroke="none" 
	d="
M665.828186,298.174774 
	C665.816406,298.263824 665.621643,298.470703 665.266235,298.816833 
	C665.250732,298.707581 665.430603,298.486420 665.828186,298.174774 
z"/>
<path fill="#1A1A18" opacity="1.000000" stroke="none" 
	d="
M86.819618,158.215942 
	C86.819618,158.215942 86.689278,157.876022 86.689278,157.876022 
	C86.689278,157.876022 87.006157,157.756592 87.000397,157.895279 
	C86.994637,158.033966 86.819618,158.215942 86.819618,158.215942 
z"/>
<path fill="#1A1A18" opacity="1.000000" stroke="none" 
	d="
M87.083069,157.943878 
	C87.171494,157.853790 87.298012,158.194199 87.298012,158.194199 
	C87.298012,158.194199 86.988106,158.306793 86.903862,158.261368 
	C86.819618,158.215942 86.994637,158.033966 87.083069,157.943878 
z"/>
<path fill="#1A1A18" opacity="1.000000" stroke="none" 
	d="
M626.897339,304.776459 
	C626.796509,304.764160 626.565247,304.545532 626.182800,304.140076 
	C626.300659,304.128998 626.545837,304.334625 626.897339,304.776459 
z"/>
<path fill="#1A1A18" opacity="1.000000" stroke="none" 
	d="
M720.226807,266.933380 
	C720.231750,266.822754 720.453308,266.577301 720.857666,266.162720 
	C720.832703,266.254028 720.633728,266.522339 720.226807,266.933380 
z"/>
<path fill="#1A1A18" opacity="1.000000" stroke="none" 
	d="
M627.884216,305.796722 
	C627.783569,305.781952 627.557678,305.557343 627.184448,305.142639 
	C627.303711,305.133026 627.544312,305.344482 627.884216,305.796722 
z"/>
<path fill="#1A1A18" opacity="1.000000" stroke="none" 
	d="
M856.782104,263.223022 
	C856.771484,263.313995 856.575928,263.514740 856.221558,263.853760 
	C856.202820,263.742371 856.380981,263.522644 856.782104,263.223022 
z"/>
<path fill="#000000" opacity="1.000000" stroke="none" 
	d="
M74.245560,158.142929 
	C74.756218,158.005753 75.499153,158.003082 76.613312,158.005157 
	C76.148964,158.099091 75.313400,158.188248 74.245560,158.142929 
z"/>
<path fill="#000000" opacity="1.000000" stroke="none" 
	d="
M50.185715,158.107086 
	C50.712666,157.969528 51.481308,157.971359 52.633713,157.981079 
	C52.154121,158.074829 51.290760,158.160645 50.185715,158.107086 
z"/>
<path fill="#000000" opacity="1.000000" stroke="none" 
	d="
M690.079163,190.248215 
	C681.918701,187.653076 677.238159,181.693604 677.035522,174.056137 
	C676.822571,166.030167 681.161926,159.218903 688.344482,156.285492 
	C698.391418,152.182205 708.937805,152.694138 719.395569,153.362839 
	C721.000671,153.465485 723.473511,156.369949 723.713623,158.216675 
	C724.308838,162.795792 724.261292,167.561768 723.719727,172.164169 
	C722.542725,182.166870 713.285522,189.854172 701.414490,190.817139 
	C697.806702,191.109802 694.127808,190.526917 690.079163,190.248215 
z"/>
<path fill="#000000" opacity="1.000000" stroke="none" 
	d="
M660.871582,123.748718 
	C660.534851,123.940453 660.107117,123.945770 659.359009,123.941467 
	C659.619324,123.808670 660.199951,123.685486 660.871582,123.748718 
z"/>
<path fill="#000000" opacity="1.000000" stroke="none" 
	d="
M231.065613,130.054062 
	C228.751678,121.697357 234.129700,116.197060 239.308411,111.752464 
	C255.793655,97.604156 279.381805,105.723495 284.316559,126.878098 
	C284.715759,128.589386 283.868347,130.591446 282.873199,132.717194 
	C265.419769,132.976227 248.693344,132.976440 231.966919,132.976654 
	C231.966919,132.976654 231.985840,133.014725 231.970581,132.705688 
	C231.658768,131.615784 231.362198,130.834915 231.065613,130.054062 
z"/>
<path fill="#000000" opacity="1.000000" stroke="none" 
	d="
M283.013397,134.007233 
	C281.933441,134.665039 280.858704,135.885147 279.772736,135.895248 
	C266.212891,136.021164 252.651184,136.004303 239.090729,135.910767 
	C237.882904,135.902420 236.680527,135.103012 235.715668,134.355042 
	C251.641617,134.028488 267.327515,134.017868 283.013397,134.007233 
z"/>
<path fill="#000000" opacity="1.000000" stroke="none" 
	d="
M277.751526,155.657654 
	C269.302521,155.967407 260.631439,155.974380 251.495453,155.967346 
	C251.351440,155.583054 251.676651,154.886032 251.992722,154.890152 
	C260.505554,155.001175 269.017426,155.184097 277.751526,155.657654 
z"/>
<path fill="#000000" opacity="1.000000" stroke="none" 
	d="
M248.748230,155.652008 
	C245.044876,155.973755 241.102249,156.235229 237.199493,155.950348 
	C232.571014,155.612473 230.407272,157.358459 230.824814,162.478210 
	C230.391602,160.804153 229.154602,158.380386 229.818771,156.714645 
	C230.363983,155.347198 233.171036,154.153336 234.972137,154.158096 
	C239.491318,154.170059 244.008575,154.904938 248.748230,155.652008 
z"/>
<path fill="#1F1F1E" opacity="1.000000" stroke="none" 
	d="
M283.036682,133.743958 
	C267.327515,134.017868 251.641617,134.028488 235.489563,134.054565 
	C234.187454,133.825287 233.351486,133.580566 232.241226,133.156250 
	C248.693344,132.976440 265.419769,132.976227 282.626892,132.965118 
	C283.091705,133.129715 283.075836,133.305191 283.036682,133.743958 
z"/>
<path fill="#000000" opacity="1.000000" stroke="none" 
	d="
M289.811584,155.698303 
	C288.601959,155.978317 287.223206,155.986420 285.431213,155.983154 
	C286.559479,155.789978 288.100983,155.608185 289.811584,155.698303 
z"/>
<path fill="#1F1F1E" opacity="1.000000" stroke="none" 
	d="
M231.096863,130.370346 
	C231.362198,130.834915 231.658768,131.615784 231.989807,132.714752 
	C231.725540,132.250793 231.426819,131.468719 231.096863,130.370346 
z"/>
<path fill="#000000" opacity="1.000000" stroke="none" 
	d="
M519.888672,118.217926 
	C525.474487,131.526917 524.482178,133.003510 510.313416,133.001953 
	C498.048859,133.000595 485.783997,133.047409 473.519928,132.968369 
	C467.615631,132.930328 466.378906,131.154373 467.995392,125.549469 
	C472.704163,109.222633 481.401611,102.533127 497.370361,103.024132 
	C507.878296,103.347221 515.056580,108.750031 519.888672,118.217926 
z"/>
<path fill="#000000" opacity="1.000000" stroke="none" 
	d="
M536.244507,169.339111 
	C540.031860,169.034500 544.038513,169.031113 548.503845,169.043579 
	C544.935486,172.248093 540.725769,171.505890 536.244507,169.339111 
z"/>
<path fill="#000000" opacity="1.000000" stroke="none" 
	d="
M470.912354,151.819458 
	C470.564484,152.018539 470.117798,152.022858 469.336212,152.028107 
	C469.605377,151.894257 470.209503,151.759460 470.912354,151.819458 
z"/>
<path fill="#000000" opacity="1.000000" stroke="none" 
	d="
M326.216644,84.324577 
	C327.732300,84.038429 329.429382,84.029564 331.550293,84.027283 
	C330.331055,86.340179 328.472260,86.528046 326.216644,84.324577 
z"/>
<path fill="#000000" opacity="1.000000" stroke="none" 
	d="
M374.737183,211.467224 
	C373.878540,211.714081 372.871368,211.734695 371.487549,211.735458 
	C372.270172,211.557404 373.429413,211.399185 374.737183,211.467224 
z"/>
<path fill="#000000" opacity="1.000000" stroke="none" 
	d="
M380.771362,211.492645 
	C380.195465,211.713837 379.499084,211.727783 378.455322,211.722107 
	C378.955597,211.563461 379.803253,211.424438 380.771362,211.492645 
z"/>
<path fill="#000000" opacity="1.000000" stroke="none" 
	d="
M568.830444,211.379120 
	C565.307983,211.355698 566.168213,208.515472 566.158325,206.377548 
	C566.073181,187.911926 566.076416,169.445908 566.071533,150.517853 
	C566.725952,152.159027 567.892334,154.257019 567.913391,156.366455 
	C568.068970,171.943741 567.961487,187.523438 568.029175,203.101974 
	C568.040588,205.732529 568.497131,208.361130 568.830444,211.379120 
z"/>
<path fill="#000000" opacity="1.000000" stroke="none" 
	d="
M595.650574,211.431137 
	C587.928284,211.732178 579.979431,211.757416 571.573730,211.765182 
	C571.605164,211.320770 572.101013,210.514267 572.580811,210.523621 
	C580.196411,210.672470 587.809998,210.925842 595.650574,211.431137 
z"/>
<path fill="#000000" opacity="1.000000" stroke="none" 
	d="
M602.604370,159.276215 
	C602.906311,162.386215 602.916626,165.709946 602.908569,169.483612 
	C599.905579,166.606750 600.448242,163.084885 602.604370,159.276215 
z"/>
<path fill="#000000" opacity="1.000000" stroke="none" 
	d="
M602.530579,207.279266 
	C602.421448,208.567352 602.049255,210.032150 601.374023,211.615234 
	C601.469788,210.307678 601.868652,208.881836 602.530579,207.279266 
z"/>
<path fill="#000000" opacity="1.000000" stroke="none" 
	d="
M634.096191,118.412010 
	C633.755493,118.603569 633.364014,118.678680 632.968994,118.722946 
	C632.940979,118.726089 632.887573,118.502327 632.846008,118.384056 
	C633.245483,118.352066 633.644958,118.320076 634.096191,118.412010 
z"/>
<path fill="#000000" opacity="1.000000" stroke="none" 
	d="
M903.225220,314.672180 
	C905.949646,315.140930 908.416931,315.147369 910.485046,316.059204 
	C912.432312,316.917816 915.102600,318.539734 915.375610,320.173340 
	C915.703369,322.134125 914.405640,325.117584 912.810608,326.518463 
	C905.988647,332.510437 895.108643,332.347839 887.957703,326.801270 
	C884.568542,324.172455 884.470703,320.850861 885.756348,317.415863 
	C887.018311,314.044128 889.718384,312.793762 893.395386,313.463226 
	C896.494751,314.027527 899.658508,314.238098 903.225220,314.672180 
z"/>
<path fill="#000000" opacity="1.000000" stroke="none" 
	d="
M903.141052,270.133179 
	C906.560791,266.884857 910.149475,264.665375 914.429504,267.359039 
	C918.124695,269.684601 919.123718,277.678864 916.388123,282.561523 
	C915.114929,284.833923 913.449707,287.273743 911.314209,288.569977 
	C909.059631,289.938416 905.651611,291.176697 903.428894,290.433624 
	C899.608948,289.156555 897.402710,285.322693 898.370789,281.217743 
	C899.252808,277.477234 901.387878,274.032196 903.141052,270.133179 
z"/>
<path fill="#000000" opacity="1.000000" stroke="none" 
	d="
M528.836121,266.642426 
	C535.689819,266.132263 540.780212,272.309082 539.944580,279.738831 
	C539.040100,287.781128 536.351074,295.150146 531.396057,301.648956 
	C527.991699,306.114014 522.776428,308.808136 519.672363,307.516235 
	C516.097168,306.028259 513.575623,300.596222 514.134399,295.103058 
	C514.925354,287.327820 516.201965,279.588806 521.083496,273.200378 
	C523.024780,270.659912 525.986206,268.898987 528.836121,266.642426 
z"/>
</svg>